<?xml version="1.0" standalone="no"?>
<!DOCTYPE svg PUBLIC "-//W3C//DTD SVG 1.1//EN" "http://www.w3.org/Graphics/SVG/1.1/DTD/svg11.dtd" >
<svg xmlns="http://www.w3.org/2000/svg">
<metadata></metadata>
<defs>
<font id="stationmedium" horiz-adv-x="1264" >
<font-face units-per-em="2048" ascent="1638" descent="-410" />
<missing-glyph horiz-adv-x="632" />
<glyph unicode="&#xfb01;" horiz-adv-x="1087" d="M41 866q0 30 15 53.5t38 37.5q9 9 20 13t26 17.5t17 35.5v328q0 186 64 260q89 107 258 107q29 0 67 -9q36 -7 60.5 -36t24.5 -68q0 -22 -8.5 -41.5t-23 -33.5t-34 -22.5t-41.5 -8.5h-9t-9 1t-10 1h-8q-61 0 -82 -43q-21 -42 -21 -162v-271q3 -22 18.5 -36t37.5 -14 l85 -1q22 0 41 -8.5t33 -22.5t22.5 -33t8.5 -41t-8.5 -41t-22.5 -33.5t-33 -22.5t-41 -8h-91q-21 -3 -35.5 -19t-14.5 -38v-596v-1q0 -24 -9 -44.5t-24.5 -36t-36.5 -24.5t-44 -9q-24 0 -44.5 9t-36.5 24.5t-25 36t-9 44.5q0 3 0.5 6t0.5 6v592q-2 21 -16.5 34.5t-25.5 18.5 q-32 10 -53 37t-21 62zM683 1379q0 58 44 102q43 43 103 43q59 0 104 -43q43 -42 43 -103t-43 -104q-42 -43 -103 -43q-62 0 -104 43q-44 44 -44 105zM719 105v12v734v3q0 23 9 43.5t24 36t35.5 24.5t43.5 9q24 0 44.5 -9t35.5 -24.5t24 -36t9 -43.5v-3v-744q-1 -1 -1 -3 q0 -23 -9 -43t-24 -35t-35.5 -24t-43.5 -9t-43.5 9t-35.5 24t-24 35.5t-9 43.5z" />
<glyph unicode="&#xfb02;" horiz-adv-x="1087" d="M44 866q0 30 15 53.5t38 37.5q9 9 20 13t26 17.5t17 35.5v328q0 186 64 260q89 107 258 107q29 0 67 -9q36 -7 60.5 -36t24.5 -68q0 -22 -8.5 -41.5t-23 -33.5t-34 -22.5t-41.5 -8.5h-9t-9 1t-10 1h-8q-61 0 -82 -43q-21 -42 -21 -162v-271q3 -22 18.5 -36t37.5 -14 l85 -1q22 0 41 -8.5t33 -22.5t22.5 -33t8.5 -41t-8.5 -41t-22.5 -33.5t-33 -22.5t-41 -8h-91q-21 -3 -35.5 -19t-14.5 -38v-596v-1q0 -24 -9 -44.5t-24.5 -36t-36.5 -24.5t-44 -9q-24 0 -44.5 9t-36.5 24.5t-25 36t-9 44.5q0 3 0.5 6t0.5 6v592q-2 21 -16.5 34.5t-25.5 18.5 q-32 10 -53 37t-21 62zM720 109v9v1455v2q0 23 9 44t24 36.5t35.5 24.5t43.5 9t43.5 -9t36 -24.5t24.5 -36t9 -43.5v-1455v-13q0 -24 -9 -44.5t-24 -35.5t-35.5 -23.5t-44.5 -8.5q-23 0 -43.5 9t-35.5 24t-24 35.5t-9 44.5z" />
<glyph horiz-adv-x="0" />
<glyph horiz-adv-x="682" />
<glyph horiz-adv-x="0" />
<glyph horiz-adv-x="0" />
<glyph horiz-adv-x="0" />
<glyph unicode="&#x9;" horiz-adv-x="632" />
<glyph unicode="&#xd;" horiz-adv-x="1024" />
<glyph horiz-adv-x="0" />
<glyph unicode=" "  horiz-adv-x="632" />
<glyph unicode="&#x09;" horiz-adv-x="632" />
<glyph unicode="&#xa0;" horiz-adv-x="632" />
<glyph unicode="!" horiz-adv-x="679" d="M201 112q0 56 41 97t98 41t98 -41t41 -98q0 -58 -41 -99q-40 -40 -98 -40q-59 0 -99 40t-40 100zM203 1280q0 58 1 103t8 77q7 35 41 58.5t85 23.5q48 0 75 -14.5t40.5 -44t16.5 -75.5t3 -109q0 -56 -2.5 -97t-4.5 -66l-51 -720q-5 -42 -20.5 -59.5t-56.5 -17.5 q-40 0 -56 17.5t-21 59.5l-51 720q-2 28 -4.5 64t-2.5 80z" />
<glyph unicode="&#x22;" horiz-adv-x="840" d="M117 1430v4q0 19 8 38t23.5 34.5t38.5 25t53 9.5q27 0 49.5 -10.5t37.5 -27t23 -36t7 -37.5q0 -2 -0.5 -4.5t-0.5 -4.5l-27 -378l-3 -12v-2q0 -19 -7 -36t-19.5 -29.5t-29.5 -19.5t-36 -7t-36 7t-29.5 19.5t-20 29.5t-7.5 36q0 1 1 1h-1zM488 1430v4q0 19 8 38t23.5 34.5 t38.5 25t53 9.5q27 0 49.5 -10.5t37.5 -27t23 -36t7 -37.5q0 -2 -0.5 -4.5t-0.5 -4.5l-27 -382q-2 -6 -2 -8t-3 -11q-2 -13 -7 -28.5t-17.5 -28t-29.5 -19.5t-36 -7t-36 7t-29.5 19.5t-20 29.5t-7.5 36q0 1 1 1h-1z" />
<glyph unicode="&#x26;" horiz-adv-x="1497" d="M123 428q0 231 223 385l102 69q5 5 8 10q2 5 2 11.5t-6 14.5q-136 154 -136 303q0 158 102 254q103 99 268 99q161 0 265 -95q104 -96 104 -241q0 -100 -57 -182q-52 -74 -182 -177q-7 -8 -8 -15.5t1 -13.5q2 -7 6 -14l258 -312l9 10q21 23 40.5 45t38.5 44q15 23 39 36 t53 13q22 0 42 -8.5t35 -23.5t24 -35t9 -43t-9 -43t-24 -36l-3.5 -3.5l-3.5 -3.5q-45 -53 -108 -123l129 -159q16 -16 25 -36.5t9 -44.5t-9 -44.5t-24.5 -36t-36 -24.5t-44.5 -9q-31 0 -56 14.5t-40 37.5l-112 138q-214 -220 -443 -220q-204 0 -349 131q-141 133 -141 328z M349 433q0 -97 77 -177q80 -77 177 -77q135 0 312 178l-288 350q-11 13 -24 11t-19 -6q-134 -93 -184 -151q-51 -60 -51 -128zM533 1245q0 -69 54 -135l49 -58q6 -7 15 -11q8 -3 17.5 -2.5t21.5 11.5q5 4 8 4q17 14 32.5 26.5t27.5 22.5q17 14 28 26t19 21q30 39 30 92 q0 61 -41 99t-111 38q-64 0 -107 -39q-43 -38 -43 -95z" />
<glyph unicode="'" horiz-adv-x="474" d="M117 1430v4q0 19 8 38t23.5 34.5t38.5 25t53 9.5q27 0 49.5 -10.5t37.5 -27t23 -36t7 -37.5q0 -2 -0.5 -4.5t-0.5 -4.5l-29 -378q-1 -10 -1 -11v-3q0 -19 -7 -36t-19.5 -29.5t-29.5 -19.5t-36 -7t-36 7t-29.5 19.5t-20 29.5t-7.5 36q0 1 1 1h-1z" />
<glyph unicode="(" horiz-adv-x="750" d="M187 642q0 534 167 951q12 36 41.5 60.5t69.5 24.5q23 0 43.5 -9t36 -24.5t24.5 -36t9 -43.5q0 -26 -8 -46q-38 -100 -65.5 -192t-44.5 -180q-11 -57 -19 -115t-14 -121q-5 -62 -8 -129t-3 -140q0 -74 3 -141t8 -129q6 -62 14 -120t19 -115q17 -84 44 -173.5t62 -184.5 q13 -26 13 -55q0 -24 -9 -44.5t-24.5 -36.5t-36.5 -25t-45 -9q-37 0 -66 25t-46 66q-165 414 -165 942z" />
<glyph unicode=")" horiz-adv-x="750" d="M175 -276q0 29 13 55q35 95 62 184.5t44 173.5q11 57 19 115t14 120q5 62 8 129t3 141q0 73 -3 140t-8 129q-6 63 -14 121t-19 115q-17 88 -44.5 180t-65.5 192q-8 20 -8 46q0 23 9 43.5t24.5 36t36 24.5t43.5 9q40 0 69.5 -24.5t41.5 -60.5q167 -417 167 -951 q0 -528 -165 -942q-17 -41 -46 -66t-66 -25q-24 0 -45 9t-36.5 25t-24.5 36.5t-9 44.5z" />
<glyph unicode="*" d="M232 1326l62 191l252 -98l-15 270h201l-16 -270l253 98l62 -191l-262 -68l171 -210l-162 -118l-147 228l-146 -228l-163 118l172 209z" />
<glyph unicode="+" d="M98 804q0 19 7.5 36.5t20 30t29.5 20t36 7.5q2 0 2.5 -0.5t1.5 -0.5h345v334v7q0 19 7.5 36.5t20 30t29.5 20t37 7.5q19 0 36 -7.5t29.5 -20t20 -30t7.5 -36.5v-5v-336h345q1 0 1.5 0.5t2.5 0.5q19 0 36 -7.5t29.5 -20t20 -30t7.5 -36.5t-7.5 -36t-20 -29.5t-29.5 -20 t-36 -7.5v-1h-349v-340q0 -19 -7.5 -36t-20 -29.5t-30 -20t-36.5 -7.5t-36 7.5t-29.5 20t-20 29.5t-7.5 36v2v338h-349v1q-19 0 -36 7t-29.5 20t-20 29.5t-7.5 36.5z" />
<glyph unicode="," horiz-adv-x="632" d="M66 -242q0 14 5 29h1l3 9l177 434h1q13 28 39 46t58 18q22 0 42 -8.5t35 -23.5t23.5 -35t8.5 -42q0 -17 -5.5 -32t-13.5 -28l-206 -410v-1q-11 -21 -32 -33.5t-47 -12.5q-37 0 -63 26t-26 64z" />
<glyph unicode="-" horiz-adv-x="445" d="M3 494q0 41 28 69t68 28h1v1h241q1 0 1.5 -0.5t2.5 -0.5q20 0 37.5 -7.5t31 -20.5t21 -30.5t7.5 -37.5t-7.5 -37.5t-20.5 -31t-31 -21t-38 -7.5q-2 0 -5 0.5t-5 0.5h-225q-3 0 -5.5 -0.5t-5.5 -0.5q-40 0 -68 28t-28 68z" />
<glyph unicode="." horiz-adv-x="632" d="M177 112q0 56 41 97t98 41t98 -41t41 -98q0 -58 -41 -99q-40 -40 -98 -40q-59 0 -99 40t-40 100z" />
<glyph unicode="/" horiz-adv-x="1061" d="M15 -286q0 20 10 42l799 1848q10 31 36 51t61 20q21 0 39 -8t32 -22t22 -33t8 -40q0 -16 -7 -35l-1 -2q0 -3 -1 -4l-804 -1856v-1l-1 -2q-11 -27 -36 -43.5t-55 -16.5q-21 0 -39.5 8t-32.5 22t-22 32.5t-8 39.5z" />
<glyph unicode="0" d="M87 782q0 369 172 589q154 199 373 199t373 -199q172 -220 172 -599q0 -378 -172 -598q-154 -199 -372 -199t-374 199q-172 220 -172 608zM316 781q0 -257 89 -427q89 -167 227 -167q137 0 227 167q90 166 90 419t-90 420q-90 166 -227 166q-136 0 -226 -166 q-90 -165 -90 -412z" />
<glyph unicode="1" horiz-adv-x="1212" d="M321 1437q0 23 9 43t24 34.5t35.5 23t43.5 8.5q4 0 7.5 0.5t6.5 0.5h180h4q22 0 41.5 -8.5t34.5 -22.5t24 -33t10 -41l1 -1v-1325h-3v-1q0 -24 -9 -44.5t-24.5 -36.5t-36.5 -25t-45 -9t-45 9t-37 25t-25 36.5t-9 44.5v3v1150v1q0 21 -8.5 32.5t-19.5 17t-20.5 6.5 t-12.5 1h-1q-5 -1 -13 -1q-23 0 -43.5 8.5t-35.5 23.5t-24 35.5t-9 44.5z" />
<glyph unicode="2" d="M118 95q0 40 29 67l442 488q40 49 73 90.5t60 77.5q27 35 47.5 65t34.5 54q28 48 42.5 90t14.5 80q0 107 -77 181q-76 73 -187 73q-198 0 -252 -197h-1q-11 -35 -40.5 -58t-67.5 -23q-23 0 -43.5 9t-36 24.5t-24.5 36t-9 43.5q0 13 3 27l-3 1q99 347 466 347 q214 0 355 -134q144 -134 144 -332q0 -126 -67 -247q-34 -62 -100 -149q-67 -88 -166 -205l-214 -234q-2 -3 -7.5 -11t-7 -16.5t5 -15.5t28.5 -7h6h394q5 1 10 1.5t10 0.5q23 0 43 -8.5t35 -23.5t23.5 -35t8.5 -43t-8.5 -43t-23.5 -35t-35 -24t-43 -9h-2v-1h-768h-1 q-19 0 -35.5 8t-29 21t-19.5 30t-7 36z" />
<glyph unicode="3" d="M109 304q0 24 9 44.5t24.5 36t36 24.5t44.5 9q40 0 70 -23.5t40 -60.5q22 -52 64 -89q71 -59 182 -59q114 0 188 75t74 196q0 156 -111 222q-20 11 -46.5 19t-59.5 13v2q-42 2 -71 31.5t-29 72.5q0 42 27.5 71t68.5 33h5q73 8 103 28q91 57 91 187q0 98 -66 161 q-65 63 -169 63q-97 0 -151 -48q-29 -27 -50 -77q-11 -35 -40.5 -57.5t-68.5 -22.5q-23 0 -44 9t-37 25t-25.5 36.5t-9.5 44.5q0 8 2 16.5t4 16.5v-1q39 106 108 169q112 102 315 102t332 -120t129 -308q0 -212 -169 -331q193 -115 193 -368q0 -209 -141 -341 q-142 -133 -360 -133q-281 0 -416 207q-12 17 -21.5 37.5t-17.5 43.5l1 1q-8 21 -8 43z" />
<glyph unicode="4" d="M113 327q0 20 8 38.5t19 32.5l792 1152q7 9 19.5 18.5t29.5 9.5q13 0 19.5 -9t8.5 -20q3 -12 2 -28h1v-1034q1 -23 17 -38t39 -15h1q22 0 42 -8.5t34.5 -23.5t23 -34.5t8.5 -41.5t-8 -41.5t-22.5 -34t-34 -23t-41.5 -8.5h-4h4q-23 0 -40 -17t-17 -40l-2 -43v-2v1 q0 -24 -9.5 -45.5t-25.5 -37.5t-37.5 -25.5t-45.5 -9.5t-45.5 9.5t-37.5 25t-25 37t-9 45.5v10v37q-1 23 -17 38.5t-39 15.5l-480 1q-5 -2 -10.5 -1t-10.5 1q-22 0 -41.5 8.5t-34 23t-23 34t-8.5 42.5zM439 446.5q0 -5.5 4.5 -9.5t16.5 -4h3h258q23 0 38.5 14.5t17.5 37.5 v387v6q0 21 -4.5 27.5t-11.5 5t-13.5 -8l-10.5 -10.5l-292 -426q-2 -3 -4 -8.5t-2 -11z" />
<glyph unicode="5" d="M75 245q0 24 9 44.5t25 36.5t36.5 25t44.5 9q32 0 57.5 -15t40.5 -40q36 -42 73 -67q72 -50 181 -50q141 0 236 98q96 104 96 246q0 149 -95 244q-95 98 -236 98q-39 0 -76 -9h-1q-18 -6 -40 -6q-30 0 -56.5 11.5t-46 31t-31 46.5t-11.5 57q0 13 2 24.5t5 22.5l138 456 q8 26 22 33t23 8h4h1h490q1 0 2 -0.5t2 -0.5q23 0 42.5 -8.5t34 -23t23 -34.5t8.5 -43t-8.5 -43.5t-23.5 -35.5t-35 -23.5t-43 -8.5h-368l-61 -202q-1 -4 -1.5 -12t3.5 -16t13 -14t28 -6h3q226 0 371 -154q146 -151 146 -388q0 -245 -165 -404q-166 -158 -415 -158 q-248 0 -412 188q-16 16 -25.5 37t-9.5 46z" />
<glyph unicode="6" d="M110 478q0 185 151 388l480 648q15 20 37.5 32.5t47.5 12.5q23 0 43 -8.5t34.5 -23t23 -34t8.5 -40.5q0 -34 -19 -62v-1l-311 -421q15 2 27.5 3.5t23.5 3.5q11 1 19.5 1h14.5q94 0 175.5 -35.5t149.5 -107.5q138 -144 138 -344q0 -107 -39 -197.5t-114 -166.5 q-150 -151 -365 -151q-210 0 -370 149q-155 149 -155 354zM339 479q0 -61 20.5 -112.5t64.5 -93.5q84 -84 208 -84t205 84q88 84 88 203q0 124 -87 208q-42 43 -94 64t-113 21q-122 0 -207 -85q-85 -82 -85 -205z" />
<glyph unicode="7" d="M108 1434q0 22 8.5 42t23.5 35t35 24t43 9q2 0 4.5 -0.5t4.5 -0.5h832q23 0 43 -8.5t34.5 -23.5t23 -35t8.5 -42q0 -35 -18 -60v-1l-804 -1320q-14 -26 -39.5 -42.5t-57.5 -16.5q-23 0 -42.5 8.5t-34.5 23.5t-23.5 34.5t-8.5 42.5q0 36 22 66l664 1086q13 21 12.5 34.5 t-7.5 21t-17 10t-16 3.5h-578h-2q-23 0 -43 8.5t-35 23.5t-23.5 35t-8.5 43z" />
<glyph unicode="8" d="M149 438q0 260 209 364q-170 119 -170 327q0 188 129 314q130 126 323 126q192 0 320 -126q128 -125 128 -315q0 -199 -169 -325q93 -50 146 -146q55 -95 55 -216q0 -205 -134 -336t-344 -131q-212 0 -353 132q-140 133 -140 332zM379 447q0 -106 73 -184q76 -76 182 -76 t181 75q75 76 75 182q0 107 -75 181q-75 76 -181 76q-105 0 -180 -76q-75 -74 -75 -178zM408 1131q0 -98 67 -167q68 -68 163 -68q94 0 162 68q68 70 68 163q0 94 -68 164q-68 68 -162 68t-162 -68q-68 -70 -68 -160z" />
<glyph unicode="9" d="M115 1059q0 212 150 362q151 151 364 151q210 0 365 -149q156 -149 156 -351q0 -179 -152 -388l-476 -647q-15 -18 -36.5 -29t-47.5 -11q-22 0 -41.5 8.5t-33.5 23t-22.5 34t-8.5 41.5q0 18 6 35t16 31q2 2 2.5 2t1.5 2l300 410q-14 -2 -27 -3.5t-23 -2.5 q-11 -1 -19.5 -1.5t-15.5 -0.5q-187 0 -322 142q-136 140 -136 341zM340 1071q0 -125 85 -210q86 -86 207 -86t206 85q86 86 86 207t-86 207q-85 85 -207 85q-120 0 -205 -85q-86 -86 -86 -203z" />
<glyph unicode=":" horiz-adv-x="632" d="M177 112q0 56 41 97t98 41t98 -41t41 -98q0 -58 -41 -99q-40 -40 -98 -40q-59 0 -99 40t-40 100zM177 864q0 55 41 96t98 41t98 -41t41 -98q0 -58 -41 -99q-40 -40 -98 -40t-99 41q-40 40 -40 100z" />
<glyph unicode=";" horiz-adv-x="632" d="M66 -276q0 -18 7 -33.5t18.5 -27.5t27 -18.5t33.5 -6.5q25 0 45 12.5t31 32.5h1l198 396q18 25 18 59q0 22 -8 41t-22.5 33t-33.5 22.5t-40 8.5q-32 0 -57.5 -17t-37.5 -44h-1l-171 -420l-3 -9v-1q-5 -13 -5 -28zM223 857q0 56 42 100q43 41 100 41t100 -41 q42 -44 42 -101q0 -59 -42 -101q-41 -41 -100 -41q-57 0 -101 42q-41 41 -41 101z" />
<glyph unicode="&#x3c;" d="M130 686v197l1004 489v-230l-758 -359l758 -359v-228z" />
<glyph unicode="=" horiz-adv-x="1148" d="M109 640q0 36 25.5 61.5t61.5 25.5q6 0 10 -2h758q17 0 32.5 -7t27 -18.5t18 -27t6.5 -33.5t-6.5 -33.5t-18 -27t-27 -18.5t-32.5 -7h-2h-765q-37 0 -62.5 25.5t-25.5 61.5zM109 969q0 37 25.5 62.5t62.5 25.5h4h756h5q18 0 33.5 -7t27 -18.5t18.5 -27t7 -33.5t-6.5 -34 t-18 -27.5t-27 -18.5t-32.5 -7v-1h-762q-2 0 -3.5 0.5t-2.5 0.5q-18 0 -34 6.5t-27.5 18t-18.5 27t-7 33.5z" />
<glyph unicode="&#x3e;" d="M130 195v230l757 358l-757 360v228l1003 -490v-197z" />
<glyph unicode="?" horiz-adv-x="1002" d="M130 1227v12q14 133 105 223q106 106 269 106q166 0 273 -106q110 -106 110 -265q0 -164 -110 -264q-68 -63 -261 -122q-130 -40 -130 -126q0 -25 9 -46q9 -22 26 -37q18 -18 38 -26q22 -8 45 -8q19 0 32 4q16 6 35 6q22 0 42 -8.5t34.5 -23t23 -34.5t8.5 -42 q0 -35 -21.5 -63t-53.5 -39v-1q-24 -6 -50 -9.5t-54 -3.5q-145 0 -242 100q-99 100 -99 247q0 115 61 187q32 35 84.5 66.5t127.5 57.5q147 54 186 87q40 33 40 103q0 68 -41 109q-43 41 -111 41q-69 0 -111 -40q-35 -35 -39 -87q0 -2 -0.5 -3.5t-0.5 -3.5q-2 -22 -11.5 -41 t-24.5 -33t-35 -22t-42 -8q-23 0 -43.5 9t-35.5 24.5t-24 36t-9 43.5zM364 112q0 56 41 97t98 41t98 -41t41 -98q0 -58 -41 -99q-40 -40 -97 -40q-59 0 -99 40q-41 41 -41 100z" />
<glyph unicode="@" horiz-adv-x="1803" d="M109 771q0 340 240 571t593 231q325 0 543 -199q217 -196 217 -493q0 -230 -118 -393q-120 -166 -280 -166q-114 0 -164 97q-5 8 -11.5 9.5t-11.5 -0.5q-6 -3 -13 -8q-115 -103 -251 -103q-165 0 -276 119q-108 120 -108 303q0 198 122 326q122 131 305 131 q169 0 273 -131q4 29 25 48t50 19q32 0 54 -22t22 -54l-1 -9l-48 -398q-2 -14 -3 -28t-2 -27q-1 -14 -1 -26v-24q0 -75 61 -75q86 0 157 123q35 61 52 130t17 147q0 248 -172 405q-170 160 -438 160q-278 0 -469 -191q-189 -191 -189 -470q0 -153 68 -303q70 -141 194 -230 q166 -120 417 -120q209 0 434 93l1 1h1l14 4t15 2q32 0 54 -22.5t22 -54.5q0 -24 -13.5 -43.5t-34.5 -27.5v-1q-238 -101 -491 -101q-316 0 -526 152q-156 109 -243 281q-87 181 -87 368zM673 732q0 -104 52 -171t134 -67q105 0 185 89t80 207q0 93 -63 155q-65 62 -158 62 q-101 0 -165 -78q-65 -77 -65 -197z" />
<glyph unicode="A" horiz-adv-x="1517" d="M72 115q0 23 8 40l5 12l614 1322q2 4 8 13t15 18.5t21 16.5t27 7q16 0 29 -9t22 -20q11 -13 19 -29l598 -1329v-1q8 -18 8 -37v-7q-2 -23 -12 -43.5t-27 -36.5t-39 -25q-19 -7 -39 -7h-5q-22 1 -42 10t-35.5 25t-24.5 37l-6 11l-106 250q-3 6 -8.5 13t-12.5 14 t-16.5 11.5t-21.5 4.5h-584q-20 0 -33.5 -13t-20.5 -25l-124 -269q-13 -31 -41 -49.5t-63 -18.5q-24 0 -44.5 9t-35.5 24.5t-24 36t-9 44.5zM544 628v-6v-8q2 -6 8.5 -11.5t20.5 -6.5h374h-1q18 0 25 7q8 8 8 19q0 8 -3 18l-202 464q-4 8 -7 8h-2q-4 -2 -6 -6l-213 -468 q-1 -3 -2 -10z" />
<glyph unicode="B" horiz-adv-x="1211" d="M187 53v1436q2 22 17.5 37.5t38.5 15.5h175q156 0 246 -24q92 -24 157 -81q32 -29 57.5 -66t45.5 -81q38 -90 38 -179q0 -168 -126 -280q122 -43 194 -148q73 -105 73 -241q0 -181 -128 -306q-38 -38 -81.5 -65t-91.5 -42q-53 -14 -118 -21t-145 -7h-299q-21 2 -36 17 t-17 35zM419 269q2 -19 15.5 -33t33.5 -17h95q157 0 232 63q78 67 78 170q0 99 -75 167q-73 67 -261 67h-64q-21 -1 -36.5 -15t-17.5 -35v-367zM419 932q2 -20 16.5 -34t34.5 -16h22q130 0 190 57t60 170q0 107 -62 164q-31 29 -75.5 42t-103.5 13h-35q-21 -2 -33 -17 t-14 -36v-343z" />
<glyph unicode="C" horiz-adv-x="1435" d="M111 766q0 295 195 526q239 283 621 283q173 0 340 -79q2 -2 6.5 -4t8.5 -4q21 -11 35 -28.5t21 -37.5q6 -17 6 -35v-8q-2 -22 -12 -43q-10 -19 -26 -32t-35.5 -19.5t-40.5 -6.5t-41 8q-5 2 -12 5q-6 2 -14 5t-17 8q-58 26 -116.5 39t-118.5 13q-239 0 -401 -171 q-164 -170 -164 -417q0 -243 164 -410t402 -167q17 0 34 1t34 3q41 5 81 17t81 29q9 4 17 8t14 6q7 3 12 5q21 7 43 7l39 -6q41 -13 61 -51q11 -21 12.5 -43.5t-5.5 -43t-21.5 -37.5t-35.5 -28q-4 -2 -7 -4t-7 -4q-76 -37 -156.5 -56t-161.5 -21q-10 0 -19 -0.5t-18 -0.5 q-332 0 -566 231q-232 233 -232 563z" />
<glyph unicode="D" horiz-adv-x="1487" d="M183 57v1436q1 22 15.5 37.5t36.5 17.5h272q235 0 369 -46q144 -45 263 -153q240 -219 240 -574q0 -356 -250 -577q-126 -111 -262 -153q-128 -43 -363 -43h-266q-23 1 -38.5 16.5t-16.5 38.5zM416 278q0 -23 15.5 -39t37.5 -18h52q159 0 262 34q101 34 188 110 q172 157 172 410q0 255 -170 412q-153 141 -452 141h-49q-23 0 -39 -16.5t-17 -39.5v-994z" />
<glyph unicode="E" horiz-adv-x="1158" d="M183 58v1435q2 23 17 38.5t38 16.5h682h6q22 0 42 -8.5t35 -23.5t23.5 -35t8.5 -42q0 -23 -8.5 -43t-23.5 -35t-35 -23.5t-43 -8.5h-3v-1h-451q-23 0 -38 -16t-17 -39v-338q1 -24 18 -40.5t40 -16.5l436 -1q22 0 41.5 -9t34 -23.5t23 -34.5t8.5 -42q0 -23 -8.5 -42.5 t-23 -34.5t-34 -23.5t-41.5 -9.5h-1h-2h-3h-433q-23 -1 -38 -16.5t-17 -38.5v-326q1 -23 16.5 -38.5t37.5 -17.5h450h6q23 0 43 -8.5t34.5 -23.5t23 -35t8.5 -42q0 -23 -9 -43t-24 -35t-35 -23.5t-42 -8.5h-5h-684q-22 2 -37 17.5t-16 38.5z" />
<glyph unicode="F" horiz-adv-x="1041" d="M185 109v6v2v2v1370q2 22 16.5 37.5t36.5 17.5h606h2q22 0 42 -9t35 -24t23.5 -35t8.5 -43t-8.5 -42.5t-23.5 -34.5t-35 -23.5t-42 -8.5h-2h-372q-22 -1 -37.5 -16.5t-16.5 -37.5v-260q1 -23 17 -39t39 -17h352q23 0 43 -8.5t35 -23t23.5 -34.5t8.5 -43t-8.5 -43 t-23.5 -35t-35 -23.5t-43 -8.5h-3h-352q-22 -2 -37 -17t-16 -37v-572q-1 -23 -11 -43t-25.5 -34.5t-36 -23t-43.5 -8.5t-43.5 8.5t-36.5 23.5t-25.5 34.5t-10.5 42.5h-1z" />
<glyph unicode="G" horiz-adv-x="1725" d="M109 767q0 337 237 573q236 236 574 236q180 0 340 -74q26 -13 61 -37.5t67.5 -48.5t55.5 -43t25 -21q8 -8 10.5 -13t6.5 -3q13 -16 18 -33t5 -38q0 -23 -9 -43.5t-24.5 -35.5t-36 -24t-43.5 -9q-20 0 -36.5 3.5t-31.5 17.5v1q-172 181 -404 181q-244 0 -413 -169 q-167 -169 -167 -419q0 -259 186 -427q174 -156 377 -156q172 0 310 117q122 104 149 246q1 9 -4 21.5t-27 12.5h-240v1h-1q-23 0 -43 8.5t-35 23.5t-23.5 35t-8.5 43q0 22 8.5 42t23.5 35t35 23.5t43 8.5h12h462q23 0 39 -15.5t18 -37.5q0 -173 -41 -307 q-40 -125 -136 -233q-216 -244 -549 -244q-325 0 -558 235q-232 236 -232 567z" />
<glyph unicode="H" horiz-adv-x="1502" d="M188 118v14v1290v12q0 24 9 45.5t25 37t37 25t45 9.5t45.5 -9.5t37.5 -25t25.5 -37t9.5 -45.5v-3v-430q0 -23 15.5 -38t37.5 -17h559q23 1 38.5 16t17.5 38v428q0 2 -0.5 3.5t-0.5 3.5q0 24 9.5 45t25 37t37 25t45.5 9t45.5 -9t37.5 -25t25 -37t9 -45v-4v-1317v-1 q-1 -24 -10.5 -44.5t-25 -35.5t-36.5 -23.5t-45 -8.5t-45.5 9t-37 25t-24.5 37t-9 45v14v542q-2 21 -16.5 36t-35.5 17h-563q-22 -2 -37.5 -17t-15.5 -38v-557v-1q-1 -24 -10.5 -44.5t-25.5 -35.5t-37 -23.5t-45 -8.5t-45.5 9.5t-37 25t-24.5 37t-9 45.5z" />
<glyph unicode="I" horiz-adv-x="604" d="M184 125v1302v3q0 24 9 45.5t24.5 37.5t37 25t45.5 9t45.5 -9.5t37.5 -25.5t25 -37.5t9 -45.5v-2v-1302v-7q0 -24 -9 -45.5t-25 -37.5t-37 -25t-45 -9t-45 10.5t-37 28t-25 39.5t-10 46z" />
<glyph unicode="J" horiz-adv-x="840" d="M10 101q0 23 9 43t24 35t35.5 24t43.5 9q25 0 43 -9q2 0 2.5 -0.5t2.5 -0.5q15 -5 33.5 -8t33.5 -3q105 0 145 79q42 79 42 276l-1 877v8v1q1 23 10.5 43.5t25.5 36t36.5 24.5t43.5 9q24 0 45 -9t37 -24.5t25.5 -36t10.5 -43.5h1v-4v-1v-1l1 -882q0 -176 -26 -266 q-23 -98 -85 -169q-116 -137 -311 -137q-64 0 -125 15q-13 3 -23 7l-13 5q-29 13 -47.5 40t-18.5 62z" />
<glyph unicode="K" horiz-adv-x="1357" d="M183 116v1312l1 3q0 24 9 45.5t25 37t37 24.5t45 9t45 -9t37 -25t25 -37t9 -45v-1h1v-454q1 -11 6.5 -19t22.5 3l537 551h1q32 35 81 35q22 0 42 -8.5t35 -23.5t24 -35t9 -43q0 -22 -8 -41.5t-22 -33.5l-475 -476v1q-17 -16 -19 -38.5t12 -40.5l507 -608q14 -16 21.5 -36 t7.5 -43q0 -25 -9.5 -46.5t-26 -38t-38 -26t-46.5 -9.5q-30 0 -55.5 13.5t-42.5 36.5l-480 593q-6 8 -20 15.5t-28 6.5t-25 -14t-11 -46l-1 -493q0 -24 -9.5 -44t-25 -35t-36.5 -23.5t-45 -8.5t-45 9t-37 25t-25 36.5t-9 44.5h-1z" />
<glyph unicode="L" horiz-adv-x="908" d="M182 56v1372q0 24 9 45t25 37t37 25t45 9t45.5 -9.5t37 -25t24.5 -37t9 -45.5v-1v-1154q2 -22 17.5 -37.5t38.5 -16.5h294q22 -1 41.5 -9.5t33.5 -23t22.5 -34t8.5 -41.5q0 -23 -8.5 -42.5t-22.5 -34.5t-33.5 -23.5t-41.5 -9.5h-525q-23 0 -39.5 16.5t-17.5 39.5z" />
<glyph unicode="M" horiz-adv-x="1969" d="M154 117q0 5 0.5 10t0.5 10l2 7l267 1364q1 3 4 9t8 12t13 11t19 5q9 0 19 -4q8 -3 17 -10.5t15 -21.5l1 -1l448 -1013q1 -2 4.5 -6.5t8 -7t10 -0.5t10.5 14q2 2 2 4l464 1012q5 13 14 20t17 10q10 4 19 4q11 0 19 -4.5t13 -10.5t8 -12t3 -10l241 -1369q2 -5 2 -11v-11 q0 -24 -9 -45.5t-25 -37t-37 -25t-45 -9.5q-45 0 -78 29t-39 72v-2l-125 784q-1 6 -4.5 10t-8.5 2.5t-11 -9t-13 -24.5l-348 -762q-1 -1 -1 -2q-1 -1 -1 -2t-1 -3l-5 -9q-5 -11 -12.5 -25t-17 -27.5t-20.5 -22.5t-21 -9t-19.5 7t-18 18t-16 24t-12.5 24l-356 802 q-7 14 -12.5 17.5t-9.5 1t-7 -8.5t-4 -12l-140 -782v-2q-10 -40 -41 -64.5t-73 -24.5q-24 0 -45.5 9.5t-37.5 25t-25.5 37t-9.5 45.5z" />
<glyph unicode="N" horiz-adv-x="1410" d="M185 116v1371q1 6 4 16t9.5 19.5t17 16t25.5 6.5q18 0 32 -5t26 -13.5t23 -19t22 -22.5l613 -867q10 -9 17 -11t10.5 0.5t5.5 8t2 10.5v809v2q1 23 10.5 43t25.5 35t36.5 23.5t43.5 8.5q24 0 45.5 -9.5t37.5 -25t25 -37t9 -45.5v-1330q0 -18 -2 -34.5t-8 -29.5t-16 -22 t-26 -11q-20 -3 -34.5 3.5t-26.5 17.5t-22.5 24.5t-22.5 24.5l-27 29l-2 2l-580 829q-12 12 -20 15t-12.5 0t-6 -9t-2.5 -12v-8h1h-1v-802q0 -24 -9 -45t-25 -36.5t-37 -24.5t-45 -9t-44.5 9t-36.5 24.5t-25 36t-10 44.5z" />
<glyph unicode="O" horiz-adv-x="1830" d="M108 779q0 326 239 560q238 234 572 234q330 0 566 -236q237 -236 237 -567q0 -333 -238 -565q-239 -233 -577 -233q-299 0 -537 207q-262 229 -262 600zM343 776q0 -256 172 -421q171 -165 395 -165q243 0 410 168q167 170 167 414q0 247 -165 414q-164 168 -406 168 q-241 0 -407 -168q-166 -166 -166 -410z" />
<glyph unicode="P" horiz-adv-x="1106" d="M185 119v1377q4 20 20 33t37 14h207q194 0 292 -27q101 -27 176 -102q133 -130 133 -327q0 -211 -142 -335q-140 -124 -382 -124h-109v-509q0 -1 0.5 -1.5t0.5 -1.5q0 -24 -9 -45t-25 -36.5t-37 -25t-45 -9.5t-45 9.5t-37 25t-25 36.5t-9 45v3h-1zM417 899 q1 -23 16.5 -38.5t37.5 -17.5h34q320 0 320 246q0 239 -331 239h-22q-23 -1 -38 -17t-17 -39v-373z" />
<glyph unicode="Q" horiz-adv-x="1830" d="M103 766q0 350 246 584q237 227 564 227q295 0 529 -198q281 -239 281 -624q0 -285 -197 -507q-2 -3 -6 -7q-5 -6 -7.5 -16.5t8.5 -23.5q54 -52 64 -62l1 -2q24 -27 24 -64q0 -21 -8 -40t-22 -33t-33 -22t-40 -8q-22 0 -41 9t-33 23l-65 67q-3 3 -9.5 7t-14.5 6.5t-17 1 t-19 -8.5q-178 -104 -398 -104q-310 0 -547 209q-260 230 -260 586zM339 765q0 -251 166 -410q173 -164 397 -164q65 0 123 12.5t112 36.5q4 2 9.5 6.5t8.5 11t1 15t-12 18.5q-36 35 -72.5 70t-72.5 70l-5 5q-26 29 -26 70q0 22 8 41t22.5 33t33.5 22.5t41 8.5q23 0 42 -9 t33 -24l170 -168q6 -5 17 -8t23 8q129 148 129 361q0 250 -165 418q-167 168 -412 168q-249 0 -409 -168q-162 -168 -162 -424z" />
<glyph unicode="R" horiz-adv-x="1233" d="M186 114v4v1373q0 24 16.5 40.5t39.5 17.5h217q307 0 444 -116q150 -129 150 -338q0 -164 -95 -283q-76 -97 -194 -136q-10 -3 -17 -6t-12 -6t-7 -5q-7 -10 0 -24l323 -442q13 -15 20.5 -34t7.5 -42q0 -24 -9 -45t-25 -36.5t-37.5 -25t-45.5 -9.5q-31 0 -57 15t-41 41 l-384 550q-2 4 -13.5 14.5t-25.5 11.5q-9 0 -15 -8.5t-7 -33.5v-467v-7v-5v-2q-2 -23 -11.5 -43t-25 -34.5t-36 -23t-44.5 -8.5t-44.5 9t-36.5 24t-25 35.5t-10 44.5zM419 892q2 -23 17 -38t37 -16h21q331 0 331 253q0 238 -322 238h-28q-23 -1 -39 -16.5t-17 -38.5v-382z " />
<glyph unicode="S" horiz-adv-x="1168" d="M112 337q0 24 9.5 45.5t25.5 37.5t37.5 25.5t45.5 9.5q42 0 73 -25t41 -63q15 -51 35 -76q72 -100 210 -100q109 0 181 73t72 185q0 44 -12 82q-6 19 -16 36t-23 33q-14 16 -31 30.5t-38 28.5t-46 27t-54 25l-148 62q-316 133 -316 392q0 173 132 290q133 118 331 118 q195 0 328 -139q19 -16 30 -37.5t11 -47.5q0 -23 -8.5 -43t-23.5 -35t-35 -23.5t-42 -8.5q-26 0 -48.5 11t-37.5 31q-12 14 -23.5 24t-23.5 17q-50 32 -128 32q-99 0 -161 -55q-64 -54 -64 -136q0 -113 167 -182l154 -63q188 -77 274 -186q86 -107 86 -268q0 -212 -141 -352 q-143 -140 -354 -140q-202 0 -332 120q-88 80 -131 207h1q-7 17 -7 38z" />
<glyph unicode="T" horiz-adv-x="988" d="M23 1437q0 23 8.5 43t23.5 35t35 23.5t43 8.5h722q23 0 43 -9t35 -24t23.5 -35t8.5 -42q0 -23 -8.5 -42.5t-23.5 -34.5t-35 -24t-42 -9h-1h-189q-22 -1 -37.5 -16.5t-16.5 -38.5v-1155q0 -24 -9 -45t-25 -37t-37.5 -25t-45.5 -9t-45.5 9t-37 24.5t-24.5 37t-9 45.5v1155 q-1 23 -17 38.5t-39 16.5h-191v1q-23 0 -43 8.5t-34.5 23.5t-23 34.5t-8.5 42.5z" />
<glyph unicode="U" horiz-adv-x="1513" d="M185 547v886q0 24 9.5 45t25.5 37t37 25t45 9t45.5 -9t37.5 -25t25.5 -37t9.5 -45v-821q0 -199 65 -293q99 -134 276 -134q179 0 275 134q67 89 67 293v821q0 24 9 45t25 37t37 25t45 9q25 0 46.5 -9t37.5 -25t25 -37t9 -45h1v-886q0 -244 -154 -406q-170 -176 -423 -176 t-423 176q-153 160 -153 406z" />
<glyph unicode="V" horiz-adv-x="1374" d="M65 1430q0 24 9.5 45.5t25.5 37.5t37.5 25t45.5 9q38 0 67.5 -21t42.5 -54l378 -948q8 -17 15 -19.5t12 1t8.5 9.5t4.5 8v1l383 945q0 2 1 4.5t2 4.5l1 2q14 29 42.5 48t63.5 19q24 0 45.5 -9t37.5 -25t25 -37.5t9 -45.5q0 -11 -2 -21.5t-5 -20.5v-1l-3 -6l-535 -1280 q-12 -28 -26 -50q-12 -19 -28.5 -34.5t-34.5 -15.5q-15 0 -28.5 10.5t-25 25.5t-20 30.5t-12.5 24.5l-525 1286q-11 25 -11 52z" />
<glyph unicode="W" horiz-adv-x="2172" d="M70 1430q0 24 9 45.5t25 37.5t37.5 25t45.5 9q38 0 68 -22t42 -56l359 -921q1 -1 4 -9.5t10 -8.5q5 0 8 6t5 11l353 934q6 17 14 31q7 12 16 22.5t20 12.5h8q9 -2 16.5 -10.5t13.5 -18.5t10.5 -20t6.5 -14l339 -936q1 -1 4.5 -9.5t8.5 -8.5q6 0 9.5 6.5t5.5 10.5l377 910 q15 38 43.5 64t70.5 26q24 0 45.5 -9t37 -25t25 -37.5t9.5 -45.5q0 -20 -6 -36l-1 -3q-1 -3 -2.5 -6t-2.5 -6l-537 -1278q-13 -28 -26 -50q-11 -19 -26 -34.5t-29 -15.5q-13 0 -25 12t-22 28.5t-17 32t-10 23.5l-327 901l-340 -900q-3 -6 -10 -22t-17 -32.5t-22.5 -29.5 t-26.5 -13q-12 0 -24 10.5t-22 25t-17.5 30t-11.5 24.5l-512 1288q-12 22 -12 51z" />
<glyph unicode="X" horiz-adv-x="1265" d="M106 114q0 36 20 64l368 614v-1q3 5 4 11q1 5 0 11t-5 13v3l-311 538q-10 14 -15.5 30.5t-5.5 34.5q0 24 9 44.5t25 36t36.5 24.5t44.5 9q35 0 63 -18.5t42 -47.5l1 -2l245 -435q1 -3 3 -5q4 -4 9 -4q8 0 13 9l259 434q13 31 41 50t63 19q24 0 44.5 -9t36.5 -25t25 -36.5 t9 -44.5q0 -14 -3.5 -27.5t-8.5 -24.5l-336 -554q-2 -4 -4 -13.5t4 -20.5l356 -614q19 -29 19 -63q0 -24 -9 -44.5t-24.5 -35.5t-36 -24t-44.5 -9q-33 0 -60 17t-41 45l-296 510q-4 8 -11 7.5t-10 -7.5l-306 -515q-14 -26 -40.5 -42t-58.5 -16q-24 0 -45 9t-36 24.5t-24 36 t-9 44.5z" />
<glyph unicode="Y" horiz-adv-x="1229" d="M76 1432q0 24 9 45.5t25 37t37 25t45 9.5q35 0 63.5 -19t42.5 -49l1 1l303 -531l3.5 -3.5t5.5 -4t7 0t9 8.5l305 530q14 29 42 47.5t63 18.5q24 0 45 -9t37 -25t25 -37t9 -45q0 -31 -13 -54l-400 -693q-8 -14 -9 -24q-1 -6 -1 -11v-533q0 -24 -9.5 -45t-25.5 -37t-37 -25 t-45 -9t-45 9.5t-37 25t-25 36.5t-9 45v2v532q-1 3 -2.5 13.5t-7.5 21.5v1l-393 682q-18 27 -18 63z" />
<glyph unicode="Z" horiz-adv-x="1280" d="M167 119q0 12 2 25t8 31.5t18.5 43.5t33.5 61l579 1011q6 10 6 17t-3.5 10.5t-8.5 5t-9 1.5h-482h-8q-23 0 -43 8.5t-35 23.5t-23.5 35t-8.5 43q0 22 8.5 42t23.5 35t35 23.5t43 8.5v1h766q38 -3 61 -17q10 -6 17 -15.5t9 -23t-2.5 -32t-17.5 -42.5q-3 -4 -5 -7.5 t-4 -7.5l-656 -1148q-1 -3 -2 -8.5t1 -10.5t8 -9t19 -4q1 0 1 0.5t2 -0.5h587q22 -1 41.5 -9.5t34 -23.5t23 -35t8.5 -42q0 -23 -8.5 -42.5t-23.5 -34.5t-35 -23.5t-42 -8.5h-2h-803v1q-4 -1 -8 0q-7 0 -20 5q-37 11 -61 41.5t-24 70.5z" />
<glyph unicode="[" horiz-adv-x="732" d="M196 -163v1599q0 69 8.5 117.5t31.5 79t62.5 45t101.5 14.5h97q127 0 127 -120q0 -116 -127 -116h-60v-1637h61q127 0 127 -120q0 -116 -127 -116h-98q-62 0 -101.5 14t-62.5 44.5t-31.5 78.5t-8.5 117z" />
<glyph unicode="\" horiz-adv-x="1061" d="M39 1572q0 21 8 40t22 33t32 22t39 8q35 0 61 -20t36 -51l799 -1848q10 -22 10 -42q0 -21 -8 -39.5t-22 -32.5t-32.5 -22t-39.5 -8q-30 0 -55 16.5t-36 43.5l-1 2v1l-804 1856q-1 1 -1 4l-1 2q-7 19 -7 35z" />
<glyph unicode="]" horiz-adv-x="732" d="M107 -301q0 120 127 120h61v1637h-60q-127 0 -127 116q0 120 127 120h97q62 0 101.5 -14.5t62.5 -45t31.5 -79t8.5 -117.5v-1599q0 -69 -8.5 -117t-31.5 -78.5t-62.5 -44.5t-101.5 -14h-98q-127 0 -127 116z" />
<glyph unicode="^" horiz-adv-x="1158" d="M36 812l391 739h304l392 -739h-246l-298 555l-298 -555h-245z" />
<glyph unicode="_" horiz-adv-x="1158" d="M0 -129h1158v-210h-1158v210z" />
<glyph unicode="`" horiz-adv-x="1158" d="M237 1433q1 21 11 43t32 42q19 18 41.5 24.5t44 5t40 -10t29.5 -21.5q2 -2 2.5 -3.5t2.5 -3.5l182 -218q1 -2 6 -7q13 -14 19 -30.5t5.5 -33.5t-8 -33t-20.5 -28q-14 -12 -30.5 -18t-33.5 -5.5t-33 7t-29 20.5q-1 1 0 1h-1l-232 194q-1 1 -1 1.5t-2 1.5q-12 14 -19 32.5 t-6 39.5z" />
<glyph unicode="a" horiz-adv-x="1228" d="M95 489q0 219 132 365q129 146 327 146q168 0 303 -140q0 23 9 43.5t24 36t35.5 24.5t43.5 9q24 0 45 -9t36.5 -24.5t24.5 -36t9 -43.5q0 -2 -0.5 -3t-0.5 -2h1l-1 -799q0 -23 -16.5 -39.5t-40.5 -16.5h-112q-23 0 -39 14.5t-18 37.5v50q-139 -130 -297 -130 q-202 0 -333 146q-132 148 -132 371zM325 489q0 -138 76 -226q78 -90 193 -90q124 0 202 86q77 91 77 225q0 136 -77 225q-77 87 -201 87q-114 0 -192 -87q-78 -90 -78 -220z" />
<glyph unicode="b" horiz-adv-x="1228" d="M141 56v1526q0 23 9 43.5t24 36t35.5 24.5t44.5 9q23 0 43.5 -9t36 -24t24.5 -35.5t9 -43.5v-719q136 141 307 141q198 0 330 -148q131 -146 131 -365q0 -228 -133 -374q-131 -147 -332 -147q-168 0 -303 130v-45q0 -23 -16 -39.5t-39 -17.5h-114q-23 0 -40 17t-17 40z M353 488q0 -142 76 -227q76 -87 201 -87q118 0 195 87q79 90 79 220q0 141 -77 229q-76 91 -194 91q-124 0 -203 -87q-77 -88 -77 -226z" />
<glyph unicode="c" horiz-adv-x="976" d="M93 483q0 218 155 369q154 151 380 151q104 0 200 -36q31 -11 51.5 -38t20.5 -63q0 -22 -8.5 -41.5t-22.5 -34t-33.5 -23t-41.5 -8.5q-26 0 -50 13q-55 26 -123 26q-128 0 -212 -87q-84 -90 -84 -225q0 -139 81 -226q84 -87 211 -87q75 0 134 31q22 10 45 10 q22 0 41 -8.5t33 -23t22 -33.5t8 -41q0 -35 -20.5 -62t-52.5 -37q-101 -39 -200 -39q-227 0 -381 147q-153 148 -153 366z" />
<glyph unicode="d" horiz-adv-x="1228" d="M96 491q0 216 131 364q129 147 326 147q171 0 306 -140v710v4q0 24 9 44.5t24.5 36t36 24.5t44.5 9q23 0 44 -9t36.5 -24.5t24.5 -36t9 -44.5v-1524q-2 -22 -18.5 -37t-38.5 -15h-114q-23 1 -40 17.5t-17 39.5v44q-134 -129 -301 -129q-200 0 -331 146q-131 151 -131 373 zM326 490q0 -140 75 -228q77 -89 194 -89q125 0 202 86q77 89 77 226t-77 226q-77 87 -200 87q-116 0 -194 -88q-77 -89 -77 -220z" />
<glyph unicode="e" horiz-adv-x="1133" d="M92 485q0 231 128 374q128 141 343 141q109 0 193 -33.5t147 -103.5q125 -136 125 -376q-2 -23 -18.5 -39t-39.5 -16h-590q-4 0 -13 -1t-17.5 -5.5t-13.5 -14t-2 -26.5q16 -87 71 -143q70 -70 178 -70q84 0 140 40q15 11 31.5 28.5t35.5 40.5q15 21 38.5 33t49.5 12 q23 0 43 -8.5t34.5 -23.5t23 -35t8.5 -42q0 -39 -24 -69q-1 -2 -2 -2.5t-2 -1.5l-16 -19q-48 -52 -106 -89q-56 -33 -121 -50q-64 -16 -141 -16q-219 0 -351 141q-132 139 -132 374zM355 645q0 -6 2 -11q3 -7 11.5 -12.5t26.5 -5.5h3h353q14 1 21 6q8 6 10 12q2 5 1 10v4 q-1 6 -2 11q-56 138 -213 138q-44 0 -77 -13q-36 -12 -66 -36q-15 -12 -27.5 -25.5t-22.5 -30.5q-5 -8 -9 -15.5t-8 -15.5q-3 -8 -3 -16z" />
<glyph unicode="f" horiz-adv-x="616" d="M44 866q0 30 15 53.5t38 37.5q9 9 20 13t26 17.5t17 35.5v328q0 186 64 260q89 107 258 107q29 0 67 -9q36 -7 60.5 -36t24.5 -68q0 -22 -8.5 -41.5t-23 -33.5t-34 -22.5t-41.5 -8.5h-9t-9 1t-10 1h-8q-61 0 -82 -43q-21 -42 -21 -162v-271q3 -22 18.5 -36t37.5 -14 l85 -1q22 0 41 -8.5t33 -22.5t22.5 -33t8.5 -41t-8.5 -41t-22.5 -33.5t-33 -22.5t-41 -8h-91q-21 -3 -35.5 -19t-14.5 -38v-596v-1q0 -24 -9 -44.5t-24.5 -36t-36.5 -24.5t-44 -9q-24 0 -44.5 9t-36.5 24.5t-25 36t-9 44.5q0 3 0.5 6t0.5 6v592q-2 21 -16.5 34.5t-25.5 18.5 q-32 10 -53 37t-21 62z" />
<glyph unicode="g" horiz-adv-x="1226" d="M96 482q0 211 119 362q128 158 338 158q183 0 306 -138q0 23 9 43.5t24.5 35.5t36 23.5t43.5 8.5t43.5 -8.5t35.5 -23.5t23.5 -35.5t8.5 -43.5q0 -2 0.5 -3.5t0.5 -2.5v-835q0 -35 -1.5 -65t-3.5 -56q-5 -53 -12 -93q-26 -110 -94 -189q-132 -152 -363 -152 q-196 0 -321 106q-68 56 -106 135q-13 26 -13 53q0 23 9 43.5t24 35.5t35.5 24t43.5 9q37 0 65.5 -21.5t39.5 -55.5q5 -10 10 -18.5t11 -16.5q69 -90 204 -90q247 0 247 302v77l-1 1q0 21 -8.5 24.5t-19.5 -0.5q-12 -4 -28 -17h-1q-113 -86 -252 -86q-199 0 -325 144 q-128 146 -128 365zM327 484q0 -132 67 -217q73 -93 202 -93q128 0 204 94q69 84 69 218q0 140 -76 225q-78 87 -197 87q-129 0 -202 -94q-67 -85 -67 -220z" />
<glyph unicode="h" horiz-adv-x="1123" d="M140 108v1v1v1v1v1460v5q0 23 9 43.5t24 36t35.5 24.5t43.5 9q24 0 44.5 -9t35.5 -24t24 -35.5t9 -44.5v-684q120 108 265 108q165 0 264 -107q84 -93 84 -298v-471q1 -3 1 -5l-1 -9q0 -24 -8.5 -44.5t-23.5 -35.5t-35.5 -24t-44.5 -9q-23 0 -43.5 9t-36 24t-24.5 35.5 t-9 44.5v1v5v458q0 117 -41 169q-42 54 -134 54q-118 0 -166 -74q-47 -72 -47 -254v-346q0 -4 0.5 -7t0.5 -6q0 -24 -9 -44.5t-24.5 -35.5t-36 -24t-43.5 -9t-43.5 8.5t-36 23.5t-24.5 35t-9 43z" />
<glyph unicode="i" horiz-adv-x="510" d="M108 1379q0 58 44 102q43 43 103 43q59 0 104 -43q43 -42 43 -103t-43 -104q-42 -43 -103 -43q-62 0 -104 43q-44 44 -44 105zM144 113v12v734v3q0 23 9 43.5t24 36t35.5 24.5t43.5 9q24 0 44.5 -9t35.5 -24.5t24 -36t9 -43.5v-3v-744q-1 -1 -1 -3q0 -23 -9 -43t-24 -35 t-35.5 -24t-43.5 -9t-43.5 9t-35.5 24t-24 35.5t-9 43.5z" />
<glyph unicode="j" horiz-adv-x="510" d="M108 1379q0 59 43 102t103 43q61 0 104 -43q43 -42 43 -103t-43 -104q-42 -43 -103 -43t-104 43t-43 105zM143 -421h1q0 -23 8.5 -43t23.5 -35t35.5 -24t43.5 -9t43.5 8.5t36 23.5t24.5 35t9 43v1v1281q0 23 -9 43.5t-24 36t-35.5 24.5t-44.5 9q-23 0 -43.5 -9t-35.5 -24 t-24 -35.5t-9 -43.5v-9v-1273z" />
<glyph unicode="k" horiz-adv-x="1020" d="M140 1577q0 24 9 44.5t24 35.5t35.5 24t44.5 9q23 0 43.5 -9t35.5 -24t24 -35.5t9 -44.5h1v-918l287 285v-1q29 31 74 31t75 -30t30 -75q0 -20 -7.5 -38.5t-20.5 -32.5l-2 -2q0 -1 -1 -1l-239 -231l301 -375q31 -33 31 -78q0 -24 -9 -44.5t-24 -36t-36 -24.5t-45 -9 q-47 0 -79 32l-6 6q-2 3 -5 6.5t-5 6.5l-283 362l-36 -36v-260q0 -1 -1 -2v-1q0 -23 -8.5 -43.5t-23.5 -35.5t-35.5 -24t-44.5 -9q-23 0 -43 8.5t-35 23t-24 34t-10 42.5v6v1462z" />
<glyph unicode="l" horiz-adv-x="510" d="M141 112v9v1455v2q0 23 9 44t24 36.5t35.5 24.5t43.5 9t43.5 -9t36 -24.5t24.5 -36t9 -43.5v-1455v-13q0 -24 -9 -44.5t-24 -35.5t-35.5 -23.5t-44.5 -8.5q-23 0 -43.5 9t-35.5 24t-24 35.5t-9 44.5z" />
<glyph unicode="m" horiz-adv-x="1620" d="M141 109v5v747q0 23 9 43.5t24.5 36t36 24.5t43.5 9q43 0 74 -24.5t37 -65.5l1 -1q65 68 111 92q47 25 123 25q164 0 260 -144q106 144 287 144q329 0 329 -398l-1 -488q0 -5 -1 -8q-2 -22 -11 -41t-24 -33.5t-35 -22.5t-42 -8q-24 0 -44.5 9t-35.5 24.5t-24 36t-9 43.5 v10v416q0 140 -34 198q-35 59 -115 59q-93 0 -135 -70q-42 -71 -42 -225v-388q-1 -2 -1 -7q-1 -22 -10.5 -41.5t-24.5 -34t-35 -23t-43 -8.5t-43.5 9t-36 24.5t-24.5 36t-9 43.5v3v421q0 260 -149 260q-94 0 -138 -71q-43 -70 -43 -224l-1 -386q0 -6 -1 -9q-1 -22 -10 -41.5 t-24 -34t-35 -23t-42 -8.5q-23 0 -43.5 8.5t-35.5 23t-24 34.5t-9 43z" />
<glyph unicode="n" horiz-adv-x="1123" d="M136 111q0 11 1 16v732q0 24 9 45t25 37t37 25t45 9q20 0 38.5 -7t33.5 -19t25.5 -29t14.5 -36q119 118 269 118q171 0 266 -108q83 -90 83 -298v-482q0 -2 -0.5 -4.5t-0.5 -4.5q-1 -23 -10.5 -42.5t-25 -34t-35.5 -23t-43 -8.5q-24 0 -44.5 9t-36 24.5t-24.5 36t-9 44.5 q0 9 1 14v416q0 145 -40 200q-41 57 -143 57q-114 0 -160 -75q-47 -73 -47 -256v-328q2 -7 2 -12.5v-13.5q0 -24 -9 -45.5t-24 -37.5t-36 -25.5t-45 -9.5t-45.5 9t-37.5 25t-25 37t-9 45z" />
<glyph unicode="o" horiz-adv-x="1231" d="M96 494q0 211 151 359t368 148q218 0 370 -149q150 -149 150 -366q0 -219 -151 -367q-152 -147 -373 -147q-219 0 -367 150q-148 148 -148 372zM326 490q0 -146 78 -231q80 -86 211 -86q132 0 211 85t79 227t-79 227q-80 86 -211 86q-129 0 -209 -86t-80 -222z" />
<glyph unicode="p" horiz-adv-x="1228" d="M142 -416v1274v4q0 23 9 43.5t24 35.5t35.5 24t43.5 9q22 0 42 -8.5t35 -22.5t24.5 -33.5t10.5 -41.5q133 133 302 133q202 0 331 -148q132 -146 132 -371q0 -219 -130 -364q-131 -146 -328 -146q-172 0 -306 137v-527h-1q0 -23 -9 -43.5t-24 -35.5t-35.5 -24t-43.5 -9 t-43.5 9t-35.5 24t-24 35.5t-9 43.5v2zM355 486q0 -137 77 -226q76 -87 200 -87q117 0 193 88q78 88 78 220q0 140 -76 228q-77 89 -194 89q-124 0 -201 -86t-77 -226z" />
<glyph unicode="q" horiz-adv-x="1228" d="M98 485q0 221 131 372q133 148 332 148q168 0 302 -134q2 22 11.5 41.5t25 33.5t35 22.5t42.5 8.5t43.5 -9t36 -24t24.5 -35.5t9 -44.5v-3v-1276l1 -2q0 -24 -9 -44.5t-24.5 -36t-36 -24.5t-44.5 -9t-44.5 9t-36 24t-24.5 35.5t-9 44.5v10v519q-134 -138 -307 -138 q-196 0 -327 146t-131 366zM330 495q0 -143 76 -229q75 -91 193 -91q124 0 202 86q78 87 78 227q0 135 -77 226q-77 87 -201 87q-116 0 -194 -88q-77 -87 -77 -218z" />
<glyph unicode="r" horiz-adv-x="766" d="M141 108v1v747v2q0 24 9 44.5t24.5 36t36.5 24.5t45 9q40 0 71 -24.5t39 -62.5h1q62 65 110 89q49 25 117 25h18.5t19.5 -2q22 -2 41 -11t33.5 -24.5t22.5 -35.5t8 -42q0 -23 -9 -43.5t-24 -36t-35.5 -24.5t-43.5 -9q-8 0 -15.5 1t-15.5 3l-2 1q-11 3 -20 4t-20 1 q-185 0 -185 -279v-378q1 -5 1 -16q0 -23 -9 -43.5t-24.5 -36t-36 -24.5t-43.5 -9q-24 0 -44.5 9t-36 24.5t-24.5 36t-9 43.5z" />
<glyph unicode="s" horiz-adv-x="831" d="M121 165q0 22 8.5 42t22.5 34t33.5 22.5t42.5 8.5q26 0 48.5 -11.5t37.5 -31.5v1q9 -13 15 -17q20 -18 43.5 -28t52.5 -10q114 0 114 104q0 60 -87 111q-17 8 -34 16.5t-34 17.5q-17 8 -33.5 16t-34.5 16q-100 49 -137 97q-51 60 -51 156q0 127 86 210q89 82 215 82 q56 0 104 -17.5t86 -52.5q18 -14 29 -35.5t11 -46.5q0 -23 -8.5 -42.5t-22.5 -33.5t-33.5 -22.5t-41.5 -8.5t-41 7.5t-33 21.5q-30 27 -67 27q-29 0 -51 -20q-21 -20 -21 -52q0 -58 128 -111q90 -38 149 -74t91 -68q63 -65 63 -173q0 -141 -106 -236q-101 -90 -244 -90 q-172 0 -277 123h1q-24 27 -24 68z" />
<glyph unicode="t" horiz-adv-x="568" d="M26 869q0 34 18 60.5t47 40.5q2 2 4.5 2t4.5 1q10 4 24 6q14 7 23.5 20.5t9.5 30.5v187q0 23 9 43.5t24 35.5t35.5 24t43.5 9t43.5 -9t36 -24t24.5 -35.5t9 -43.5v-187q0 -23 16 -39.5t39 -16.5h13h2q22 0 41 -8.5t33 -22.5t22.5 -33t8.5 -41t-8.5 -41t-22.5 -33t-33 -22 t-41 -8h-4l-12 -1q-23 -1 -38.5 -17.5t-15.5 -39.5v-594v-2q0 -23 -8.5 -43.5t-23.5 -35.5t-35.5 -23.5t-44.5 -8.5q-23 0 -43.5 8.5t-36 23.5t-24.5 35.5t-9 43.5v4v592q0 17 -9.5 30.5t-23.5 21.5q-14 2 -26 6q-2 1 -3.5 1t-3.5 2q-29 13 -47 40t-18 61z" />
<glyph unicode="u" horiz-adv-x="1116" d="M141 411v451v1q0 23 9 43.5t24 35.5t35.5 24t44.5 9q23 0 43.5 -9t35.5 -24t24 -35.5t9 -43.5v-1v-445q0 -243 191 -243t191 243v445q0 23 9 43.5t24 36t35.5 24.5t43.5 9q24 0 44.5 -9t35.5 -24.5t24 -36t9 -43.5v-8v-443q0 -115 -29 -202q-28 -76 -97 -137 q-114 -99 -290 -99q-175 0 -289 99q-35 31 -60 65t-39 72q-28 68 -28 202z" />
<glyph unicode="v" horiz-adv-x="1029" d="M75 864q0 23 9 43.5t24.5 35.5t36 24t44.5 9q34 0 61.5 -18.5t40.5 -48.5l1 -1l209 -451q2 -5 5.5 -9.5t6.5 -4.5q4 0 10 11q3 4 6 11v-1l204 444q13 30 41 49t63 19q24 0 44.5 -9t35.5 -24t24 -35.5t9 -44.5q0 -32 -15 -56l-367 -754l-1 1q-10 -22 -21 -40 q-9 -15 -18.5 -27t-17.5 -12q-5 0 -11 6t-12.5 15t-13 19.5t-10.5 19.5l-374 775q-14 25 -14 54z" />
<glyph unicode="w" horiz-adv-x="1585" d="M73 864q0 24 9 44.5t24.5 36t36 24.5t44.5 9q34 0 61.5 -18.5t41.5 -47.5l206 -449q3 -8 7 -14q7 -13 13 -13q5 0 12 13q4 6 7 14l200 469q2 4 6.5 12t12 15.5t17 13t21.5 5.5q14 0 25 -7.5t19 -16.5q9 -11 15 -24l203 -470q2 -5 7.5 -14.5t10.5 -9.5q6 0 13 13q4 6 7 14 l202 444q12 32 40.5 51.5t63.5 19.5q23 0 43.5 -9t36 -24.5t24.5 -36t9 -44.5q0 -22 -10 -47l-374 -769v1q-11 -22 -22 -40q-9 -15 -19 -27t-18 -12q-6 0 -13.5 8t-14.5 18.5t-13.5 22t-9.5 19.5l-192 441q-6 12 -14.5 23.5t-17.5 11.5q-10 0 -19 -13t-15 -25l-187 -428v1 q-9 -22 -19 -40q-8 -15 -18.5 -27t-18.5 -12q-6 0 -12.5 6t-13.5 15t-13 19.5t-10 19.5l-383 785q-11 22 -11 49z" />
<glyph unicode="x" horiz-adv-x="1143" d="M130 106q0 19 6 35t17 30h-1l260 317q6 8 11 15q4 6 7.5 12.5t3.5 11.5t-3.5 12t-7.5 14q-5 7 -11 15l-183 234l-2 3q-12 13 -17 28.5t-5 35.5q0 22 8 41t22.5 33.5t33.5 22.5t41 8q27 0 49 -11t36 -31l1 -3l149 -194q-3 3 0 -0.5t8.5 -9t12.5 -10.5t13 -5q12 0 22 10.5 t14 15.5l155 199q31 39 83 39q22 0 42 -8.5t34 -22.5t22.5 -34t8.5 -42q0 -19 -6 -35t-16 -30l-205 -254l-5.5 -11t-2.5 -10t4.5 -13.5t9.5 -14.5l260 -329l1 -2q22 -28 22 -63q0 -22 -8.5 -41t-22.5 -33.5t-33.5 -22.5t-40.5 -8q-25 0 -46 11t-36 28l1 -1l-218 278h-1 q-7 8 -13 14q-6 5 -12.5 9.5t-12.5 4.5q-12 0 -21.5 -10t-15.5 -16l-220 -275l-1 -1q-31 -42 -85 -42q-22 0 -41 8.5t-33.5 23t-23 33.5t-8.5 41z" />
<glyph unicode="y" horiz-adv-x="1113" d="M86 859q0 24 9 44.5t24.5 36t36 24.5t44.5 9q35 0 62.5 -19t41.5 -49v1l241 -453q3 -5 9 -12t13 -7q8 0 15 11q4 4 6 11l220 443q13 32 41 52.5t65 20.5q23 0 43.5 -9t36 -24.5t24.5 -36t9 -43.5q0 -18 -5.5 -34.5t-14.5 -30.5l-645 -1250q-12 -32 -40.5 -53.5 t-66.5 -21.5q-24 0 -44.5 9t-36 24.5t-24.5 36t-9 44.5q0 39 22 67l268 503q4 6 7 14t3 12q0 3 -2.5 9t-4.5 11q-4 6 -7 14l-320 580q-10 14 -15.5 30.5t-5.5 35.5z" />
<glyph unicode="z" horiz-adv-x="1113" d="M143 79q0 38 10.5 68t24.5 51q15 25 35 44h-1l349 422q12 17 22 37t10 36q0 9 -6.5 14t-14.5 7q-9 3 -20 4h-304v1q-22 0 -41 8.5t-33.5 22.5t-22.5 33.5t-8 40.5q0 22 8 41t22.5 33t33.5 22.5t41 8.5h616q12 0 27 -6.5t27.5 -18t21 -28t8.5 -36.5q0 -28 -5 -49.5 t-12 -38t-15.5 -29t-15.5 -22.5l-17 -21l-2 -1v-1l-337 -409q-11 -14 -20 -28q-8 -12 -14 -26.5t-6 -25.5q0 -16 13.5 -20.5t24.5 -5.5h295h6q45 0 75.5 -30t30.5 -75t-30.5 -75.5t-75.5 -30.5h-1h-578q-10 -1 -18 -1q-24 0 -43 6q-23 7 -41.5 24.5t-18.5 53.5z" />
<glyph unicode="{" horiz-adv-x="732" d="M95 550v193q70 16 100 60t30 131v446q0 171 63.5 248.5t204.5 77.5l77 -2l58 -2v-201h-28q-90 0 -117 -35t-27 -146v-402q0 -106 -29 -173q-29 -58 -111 -107q140 -84 140 -222v-453q0 -114 27 -150q28 -36 117 -36l28 1v-202h-57l-71 -4q-147 0 -211 79t-64 260v492 q0 52 -35 92.5t-95 54.5z" />
<glyph unicode="|" horiz-adv-x="1158" d="M459 -421l3 1853q-2 1 1 4v2q0 24 8 40q10 22 26.5 37.5t37 24t43 8.5t43.5 -9q35 -16 53.5 -48t14.5 -68l-5 -1843q2 -23 -8 -47q-10 -21 -26.5 -36.5t-36.5 -23.5t-42.5 -8t-44.5 9q-31 14 -49.5 41.5t-17.5 60.5v3z" />
<glyph unicode="}" horiz-adv-x="732" d="M105 -222l28 -1q89 0 116 35q28 34 28 147v400q0 107 29 174q29 58 111 107q-140 84 -140 221v455q0 116 -28 150q-29 36 -116 36l-28 -1v202h57l70 4q147 0 211 -79q65 -80 65 -260v-494q0 -52 35 -92.5t95 -54.5v-192q-70 -17 -100 -61t-30 -130v-446 q0 -171 -63.5 -248.5t-204.5 -77.5l-77 3h-58v203z" />
<glyph unicode="&#xa2;" d="M187 772q0 383 397 510v197h171v-194l9 -1q122 -15 220 -65v-300q-40 45 -75.5 75.5t-66.5 47.5q-61 34 -143 34q-127 0 -208 -86q-80 -86 -80 -221q0 -133 79 -215t209 -82q90 0 149 35q60 35 136 131v-312q-60 -25 -117 -41t-112 -24v-199h-171v208q-57 17 -99 35.5 t-73 37.5q-66 45 -116 109q-109 136 -109 320z" />
<glyph unicode="&#xa3;" d="M36 67q93 149 148 191q64 51 171 63q24 79 24 143q0 69 -35 134h-264v163h181q-97 193 -97 330q0 199 150 339q152 140 366 140q215 0 353 -141q139 -139 139 -360l-229 -85q0 167 -34 234q-66 133 -230 133q-121 0 -199 -79q-78 -78 -78 -200q0 -102 106 -292 q2 -3 4.5 -7.5t6.5 -11.5h301v-163h-234q26 -102 26 -142q0 -46 -29 -159l15 -5q32 -11 58.5 -20.5t48.5 -17.5q122 -49 178 -49q43 0 75 30q17 16 37.5 45t45.5 72l186 -112q-67 -143 -146 -201q-80 -60 -196 -60q-84 0 -256 59q-167 64 -234 64q-55 0 -87 -26t-72 -110z " />
<glyph unicode="&#xa7;" d="M166 7q3 26 14 46q10 17 30.5 32t58.5 15q42 1 66 -13t35 -32q13 -21 16 -48q28 -224 231 -224q97 0 151.5 54.5t54.5 154.5q0 93 -48 137q-48 45 -225 113q-213 83 -288 167t-75 236q0 251 219 349q-180 108 -180 300q0 169 129 291q130 121 312 121q187 0 309 -132 q124 -117 121 -338q-3 -19 -14 -34q-10 -14 -31 -25.5t-59 -13.5q-40 1 -62 12.5t-33 25.5q-12 16 -15 35q-17 254 -215 254q-96 0 -158 -59q-61 -58 -61 -151q0 -126 163 -184l102 -36q220 -79 301 -166t81 -244q0 -119 -50 -202q-49 -82 -167 -155q93 -63 131 -131 q39 -71 39 -173q0 -183 -124 -301q-125 -119 -312 -119q-122 0 -222 52q-101 50 -157 140q-58 91 -68 246zM407 649q0 -95 68 -163q69 -66 167 -66q96 0 164 66q69 66 69 160q0 95 -69 161q-68 66 -165 66q-98 0 -165 -67q-69 -66 -69 -157z" />
<glyph unicode="&#xa8;" horiz-adv-x="1158" d="M227 1284q0 58 42 99q42 42 101 42t101 -42q42 -41 42 -100q0 -60 -42 -102q-44 -41 -101 -41q-60 0 -102 42q-41 44 -41 102zM645 1284q0 58 42 99q43 42 101 42q60 0 101 -42q42 -41 42 -100q0 -60 -42 -102q-44 -41 -101 -41q-59 0 -101 42t-42 102z" />
<glyph unicode="&#xa9;" horiz-adv-x="1756" d="M77 776q0 186 76 339q77 163 214 276q224 185 503 185q185 0 335 -70q213 -93 343 -295q131 -203 131 -437q0 -335 -234 -570t-566 -235t-568 236q-234 235 -234 571zM206 775q0 -285 197 -488q196 -202 476 -202q277 0 474 201q196 202 196 488q0 153 -77 316 q-76 153 -202 243q-177 126 -397 126q-274 0 -470 -202q-197 -203 -197 -482zM415 769q0 201 148 342t359 141q132 0 256 -67l8 -4v-202l-25 20q-122 95 -248 95q-135 0 -228 -94q-93 -95 -93 -231t93 -227q95 -92 229 -92q122 0 247 98l25 20v-204q-132 -72 -274 -72 q-207 0 -352 139t-145 338z" />
<glyph unicode="&#xab;" horiz-adv-x="1179" d="M93 494l337 447q19 17 40 25q18 7 41.5 5.5t47.5 -21.5q23 -20 29 -41t4 -38q-3 -20 -13 -40l-251 -336l243 -312q11 -22 15 -43q3 -18 -3 -39.5t-29 -39.5q-27 -20 -51 -21.5t-42 6.5q-21 8 -40 26zM522 494l337 447q19 17 40 25q18 7 41.5 5.5t47.5 -21.5 q23 -20 29 -41t4 -38q-3 -20 -13 -40l-251 -336l243 -312q11 -22 15 -43q3 -18 -3 -39.5t-29 -39.5q-27 -20 -51 -21.5t-42 6.5q-21 8 -40 26z" />
<glyph unicode="&#xad;" horiz-adv-x="445" d="M3 494q0 41 28 69t68 28h1v1h241q1 0 1.5 -0.5t2.5 -0.5q20 0 37.5 -7.5t31 -20.5t21 -30.5t7.5 -37.5t-7.5 -37.5t-20.5 -31t-31 -21t-38 -7.5q-2 0 -5 0.5t-5 0.5h-225q-3 0 -5.5 -0.5t-5.5 -0.5q-40 0 -68 28t-28 68z" />
<glyph unicode="&#xae;" horiz-adv-x="1756" d="M77 776q0 186 76 339q77 163 214 276q224 185 503 185q185 0 335 -70q213 -93 343 -295q131 -203 131 -437q0 -335 -234 -570t-566 -235t-568 236q-234 235 -234 571zM206 775q0 -285 197 -488q196 -202 476 -202q277 0 474 201q196 202 196 488q0 153 -77 316 q-76 153 -202 243q-177 126 -397 126q-274 0 -470 -202q-197 -203 -197 -482zM590 309v926h185q194 0 283 -69q99 -80 99 -209q0 -87 -53 -161q-53 -72 -135 -96l-12 -4l301 -387h-216l-275 367v-367h-177zM766 824h30q190 0 190 131q0 122 -184 122h-36v-253z" />
<glyph unicode="&#xaf;" horiz-adv-x="1158" d="M229 1163v180h701v-180h-701z" />
<glyph unicode="&#xb0;" horiz-adv-x="1313" d="M348 1258q0 131 91 219q91 90 222 90q125 0 215 -91q90 -90 90 -217q0 -128 -91 -219q-90 -90 -218 -90t-219 90q-90 91 -90 218zM495 1257q0 -70 48 -119t114 -49q68 0 114 49q48 49 48 119q0 65 -47 110q-46 46 -113 46q-69 0 -117 -45q-47 -45 -47 -111z" />
<glyph unicode="&#xb1;" d="M99 0v185h1065v-185h-1065zM99 710v186h440v432h185v-432h440v-186h-440v-401h-185v401h-440z" />
<glyph unicode="&#xb2;" horiz-adv-x="896" d="M77 618l338 395q48 57 79.5 97.5t48.5 68.5q35 56 35 99q0 61 -44 102t-109 41q-137 0 -157 -164h-157q36 304 310 304q133 0 221 -82q90 -81 90 -202q0 -74 -41 -148q-20 -36 -60 -89t-103 -123l-135 -154h341v-145h-657z" />
<glyph unicode="&#xb3;" horiz-adv-x="896" d="M102 880h153q23 -137 159 -137q65 0 107 42q42 43 42 110q0 78 -44 112t-146 34v132q96 0 126 18q52 31 52 104q0 55 -38 89.5t-99 34.5q-109 0 -131 -123h-157q23 138 92.5 201t198.5 63q128 0 207 -73q81 -74 81 -187q0 -124 -97 -194q110 -68 110 -217 q0 -126 -88 -207q-89 -80 -224 -80q-275 0 -304 278z" />
<glyph unicode="&#xb4;" horiz-adv-x="1158" d="M487.5 1219q-1.5 17 4 33.5t18.5 31.5q4 5 5 7l174 225q2 2 2 3.5t2 3.5q11 13 29 22.5t39.5 12t44 -3.5t42.5 -23q23 -19 34 -40.5t12.5 -42.5t-4.5 -40t-18 -33q-2 -1 -2 -1.5t-1 -1.5l-224 -203h-1q1 0 0 -1q-12 -15 -28 -22t-33 -8t-33.5 4.5t-31.5 16.5 q-13 11 -21 27t-9.5 33z" />
<glyph unicode="&#xb6;" d="M37 1152q0 392 452 392h716l-128 -216h-61v-1548h-213v1548h-172v-1548h-214v995l-26 -1q-158 0 -256 104q-98 107 -98 274z" />
<glyph unicode="&#xb7;" horiz-adv-x="632" d="M177 773q0 56 41 97t98 41t98 -41t41 -98q0 -58 -41 -99q-40 -40 -98 -40q-59 0 -99 40t-40 100z" />
<glyph unicode="&#xb8;" horiz-adv-x="1158" d="M402 -432l199 309l186 -76l-239 -306z" />
<glyph unicode="&#xb9;" horiz-adv-x="896" d="M225 1401l88 143h238v-926h-157v783h-169z" />
<glyph unicode="&#xbb;" horiz-adv-x="1179" d="M159 871q-2 17 4 38t29 41q24 20 47 21.5t41 -5.5q21 -8 41 -25l337 -447l-328 -422q-19 -18 -40 -26q-18 -8 -42.5 -6.5t-50.5 21.5q-24 18 -29.5 39.5t-2.5 39.5q4 21 15 43l243 312l-251 336q-10 20 -13 40zM588 871q-2 17 4 38t29 41q24 20 47 21.5t41 -5.5 q21 -8 41 -25l337 -447l-328 -422q-19 -18 -40 -26q-18 -8 -42.5 -6.5t-50.5 21.5q-24 18 -29.5 39.5t-2.5 39.5q4 21 15 43l243 312l-251 336q-10 20 -13 40z" />
<glyph unicode="&#xc0;" horiz-adv-x="1517" d="M72 115q0 23 8 40l5 12l614 1322q2 4 8 13t15 18.5t21 16.5t27 7q16 0 29 -9t22 -20q11 -13 19 -29l598 -1329v-1q9 -21 7.5 -44t-11.5 -43.5t-27 -36.5t-39 -25q-21 -8 -43.5 -7t-42.5 10t-35.5 25t-24.5 37l-6 11l-106 250q-3 6 -8.5 13t-12.5 14t-16.5 11.5t-21.5 4.5 h-584q-20 0 -33.5 -13t-20.5 -25l-124 -269q-13 -31 -41 -49.5t-63 -18.5q-24 0 -44.5 9t-35.5 24.5t-24 36t-9 44.5zM456.5 1964q-1.5 21 6 43.5t26.5 45.5q17 19 38.5 28.5t43.5 10.5t41 -5t31 -18q2 -2 3 -3.5t3 -3.5l206 -196q1 -1 3 -2.5t4 -3.5q29 -24 31.5 -60.5 t-21.5 -63.5q-12 -14 -28 -22t-33 -9.5t-34 3.5t-31 17q-1 1 0 1h-1l-252 166q-2 1 -2 1.5t-2 1.5q-14 12 -22.5 30t-10 39zM544 628q-1 -7 0.5 -13.5t8 -12t20.5 -6.5h374h-1q18 0 25 7t8 15q1 10 -3 22l-202 464q-5 10 -9 7.5t-6 -5.5l-213 -468q-1 -3 -2 -10z" />
<glyph unicode="&#xc1;" horiz-adv-x="1517" d="M72 115q0 23 8 40l5 12l614 1322q2 4 8 13t15 18.5t21 16.5t27 7q16 0 29 -9t22 -20q11 -13 19 -29l598 -1329v-1q9 -21 7.5 -44t-11.5 -43.5t-27 -36.5t-39 -25q-21 -8 -43.5 -7t-42.5 10t-35.5 25t-24.5 37l-6 11l-106 250q-3 6 -8.5 13t-12.5 14t-16.5 11.5t-21.5 4.5 h-584q-20 0 -33.5 -13t-20.5 -25l-124 -269q-13 -31 -41 -49.5t-63 -18.5q-24 0 -44.5 9t-35.5 24.5t-24 36t-9 44.5zM544 628q-1 -7 0.5 -13.5t8 -12t20.5 -6.5h374h-1q18 0 25 7t8 15q1 10 -3 22l-202 464q-5 10 -9 7.5t-6 -5.5l-213 -468q-1 -3 -2 -10zM607 1776l321 322 l198 -139l-408 -276z" />
<glyph unicode="&#xc2;" horiz-adv-x="1517" d="M72 115q0 23 8 40l5 12l614 1322q2 4 8 13t15 18.5t21 16.5t27 7q16 0 29 -9t22 -20q11 -13 19 -29l598 -1329v-1q9 -21 7.5 -44t-11.5 -43.5t-27 -36.5t-39 -25q-21 -8 -43.5 -7t-42.5 10t-35.5 25t-24.5 37l-6 11l-106 250q-3 6 -8.5 13t-12.5 14t-16.5 11.5t-21.5 4.5 h-584q-20 0 -33.5 -13t-20.5 -25l-124 -269q-13 -31 -41 -49.5t-63 -18.5q-24 0 -44.5 9t-35.5 24.5t-24 36t-9 44.5zM451 1784q0 26 12 48.5t32 36.5l235 213q17 18 42.5 18t43.5 -18l-1 1l245 -221q17 -15 26 -35t9 -43q0 -21 -8 -39.5t-21.5 -32t-32 -21.5t-39.5 -8 q-23 0 -42 9t-34 24l-105 99q-16 16 -37 17.5t-38 -11.5l-114 -106q-30 -30 -72 -30q-21 0 -39.5 7.5t-32 21t-21.5 31.5t-8 39zM544 628q-1 -7 0.5 -13.5t8 -12t20.5 -6.5h374h-1q18 0 25 7t8 15q1 10 -3 22l-202 464q-5 10 -9 7.5t-6 -5.5l-213 -468q-1 -3 -2 -10z" />
<glyph unicode="&#xc3;" horiz-adv-x="1517" d="M72 115q0 23 8 40l5 12l614 1322q2 4 8 13t15 18.5t21 16.5t27 7q16 0 29 -9t22 -20q11 -13 19 -29l598 -1329v-1q9 -21 7.5 -44t-11.5 -43.5t-27 -36.5t-39 -25q-21 -8 -43.5 -7t-42.5 10t-35.5 25t-24.5 37l-6 11l-106 250q-3 6 -8.5 13t-12.5 14t-16.5 11.5t-21.5 4.5 h-584q-20 0 -33.5 -13t-20.5 -25l-124 -269q-13 -31 -41 -49.5t-63 -18.5q-24 0 -44.5 9t-35.5 24.5t-24 36t-9 44.5zM363 1810l29 41q28 40 54 67.5t53 45t56 25t63 7.5q78 0 181 -52q104 -53 134 -53q56 0 124 108l127 -106q-96 -192 -260 -192q-56 0 -183 56 q-91 46 -136 46q-55 0 -111 -104zM544 628q-1 -7 0.5 -13.5t8 -12t20.5 -6.5h374h-1q18 0 25 7t8 15q1 10 -3 22l-202 464q-5 10 -9 7.5t-6 -5.5l-213 -468q-1 -3 -2 -10z" />
<glyph unicode="&#xc4;" horiz-adv-x="1517" d="M72 115q0 23 8 40l5 12l614 1322q2 4 8 13t15 18.5t21 16.5t27 7q16 0 29 -9t22 -20q11 -13 19 -29l598 -1329v-1q9 -21 7.5 -44t-11.5 -43.5t-27 -36.5t-39 -25q-21 -8 -43.5 -7t-42.5 10t-35.5 25t-24.5 37l-6 11l-106 250q-3 6 -8.5 13t-12.5 14t-16.5 11.5t-21.5 4.5 h-584q-20 0 -33.5 -13t-20.5 -25l-124 -269q-13 -31 -41 -49.5t-63 -18.5q-24 0 -44.5 9t-35.5 24.5t-24 36t-9 44.5zM406 1844q0 58 42 100t100 42q60 0 101 -42q42 -42 42 -102q0 -59 -42 -101q-41 -42 -100 -42q-60 0 -102 42q-41 44 -41 103zM544 628q-1 -7 0.5 -13.5 t8 -12t20.5 -6.5h374h-1q18 0 25 7t8 15q1 10 -3 22l-202 464q-5 10 -9 7.5t-6 -5.5l-213 -468q-1 -3 -2 -10zM855 1844q0 58 42 100t101 42t101 -42t42 -102q0 -59 -42 -101t-101 -42q-60 0 -102 42q-41 44 -41 103z" />
<glyph unicode="&#xc5;" horiz-adv-x="1517" d="M72 115q0 23 8 40l5 12l614 1322q2 4 8 13t15 18.5t21 16.5t27 7q16 0 29 -9t22 -20q11 -13 19 -29l598 -1329v-1q9 -21 7.5 -44t-11.5 -43.5t-27 -36.5t-39 -25q-21 -8 -43.5 -7t-42.5 10t-35.5 25t-24.5 37l-6 11l-106 250q-3 6 -8.5 13t-12.5 14t-16.5 11.5t-21.5 4.5 h-584q-20 0 -33.5 -13t-20.5 -25l-124 -269q-13 -31 -41 -49.5t-63 -18.5q-24 0 -44.5 9t-35.5 24.5t-24 36t-9 44.5zM544 628q-1 -7 0.5 -13.5t8 -12t20.5 -6.5h374h-1q18 0 25 7t8 15q1 10 -3 22l-202 464q-5 10 -9 7.5t-6 -5.5l-213 -468q-1 -3 -2 -10zM556 1906 q0 88 64 151q64 64 153 64q91 0 154 -64q64 -64 64 -154t-64 -154q-63 -64 -153 -64q-91 0 -155 64q-63 64 -63 157zM675 1904q0 -43 28.5 -71.5t70.5 -28.5t70.5 28.5t28.5 70.5t-28.5 70.5t-70.5 28.5q-21 0 -39 -8t-31.5 -21.5t-21 -31.5t-7.5 -37z" />
<glyph unicode="&#xc7;" horiz-adv-x="1435" d="M111 766q0 295 195 526q239 283 621 283q173 0 340 -79q2 -2 6.5 -4t8.5 -4q21 -11 35 -28.5t21 -38t5.5 -42.5t-11.5 -43q-10 -19 -26 -32t-35.5 -19.5t-40.5 -6.5t-41 8q-5 2 -12 5q-6 2 -14 5t-17 8q-58 26 -116.5 39t-118.5 13q-239 0 -401 -171q-164 -170 -164 -417 q0 -243 164 -410t402 -167q17 0 34 1t34 3q41 5 81 17t81 29q9 4 17 8t14 6q7 3 12 5q41 14 82 1t61 -51q11 -21 12.5 -43.5t-5.5 -43t-21.5 -37.5t-35.5 -28q-4 -2 -7 -4t-7 -4q-76 -37 -156.5 -56t-161.5 -21q-10 0 -19 -0.5t-18 -0.5q-332 0 -566 231q-232 233 -232 563z M602 -442l210 319l198 -88l-262 -308z" />
<glyph unicode="&#xc8;" horiz-adv-x="1158" d="M183 58v1435q2 23 17 38.5t38 16.5h682h6q22 0 42 -8.5t35 -23.5t23.5 -35t8.5 -42q0 -23 -8.5 -43t-23.5 -35t-35 -23.5t-43 -8.5h-3v-1h-451q-23 0 -38 -16t-17 -39v-338q1 -24 18 -40.5t40 -16.5l436 -1q22 0 41.5 -9t34 -23.5t23 -34.5t8.5 -42q0 -23 -8.5 -42.5 t-23 -34.5t-34 -23.5t-41.5 -9.5h-1h-2h-3h-433q-23 -1 -38 -16.5t-17 -38.5v-326q1 -23 16.5 -38.5t37.5 -17.5h450h6q23 0 43 -8.5t34.5 -23.5t23 -35t8.5 -42q0 -23 -9 -43t-24 -35t-35 -23.5t-42 -8.5h-5h-684q-22 2 -37 17.5t-16 38.5zM358.5 1964q-1.5 21 6 43.5 t26.5 45.5q17 19 38.5 28.5t43.5 10.5t41 -5t31 -18q2 -2 3 -3.5t3 -3.5l206 -196q1 -1 3 -2.5t4 -3.5q29 -24 31.5 -60.5t-21.5 -63.5q-12 -14 -28 -22t-33 -9.5t-34 3.5t-31 17q-1 1 0 1h-1l-252 166q-2 1 -2 1.5t-2 1.5q-14 12 -22.5 30t-10 39z" />
<glyph unicode="&#xc9;" horiz-adv-x="1158" d="M183 58v1435q2 23 17 38.5t38 16.5h682h6q22 0 42 -8.5t35 -23.5t23.5 -35t8.5 -42q0 -23 -8.5 -43t-23.5 -35t-35 -23.5t-43 -8.5h-3v-1h-451q-23 0 -38 -16t-17 -39v-338q1 -24 18 -40.5t40 -16.5l436 -1q22 0 41.5 -9t34 -23.5t23 -34.5t8.5 -42q0 -23 -8.5 -42.5 t-23 -34.5t-34 -23.5t-41.5 -9.5h-1h-2h-3h-433q-23 -1 -38 -16.5t-17 -38.5v-326q1 -23 16.5 -38.5t37.5 -17.5h450h6q23 0 43 -8.5t34.5 -23.5t23 -35t8.5 -42q0 -23 -9 -43t-24 -35t-35 -23.5t-42 -8.5h-5h-684q-22 2 -37 17.5t-16 38.5zM443 1776l321 322l198 -139 l-408 -276z" />
<glyph unicode="&#xca;" horiz-adv-x="1158" d="M183 58v1435q2 23 17 38.5t38 16.5h682h6q22 0 42 -8.5t35 -23.5t23.5 -35t8.5 -42q0 -23 -8.5 -43t-23.5 -35t-35 -23.5t-43 -8.5h-3v-1h-451q-23 0 -38 -16t-17 -39v-338q1 -24 18 -40.5t40 -16.5l436 -1q22 0 41.5 -9t34 -23.5t23 -34.5t8.5 -42q0 -23 -8.5 -42.5 t-23 -34.5t-34 -23.5t-41.5 -9.5h-1h-2h-3h-433q-23 -1 -38 -16.5t-17 -38.5v-326q1 -23 16.5 -38.5t37.5 -17.5h450h6q23 0 43 -8.5t34.5 -23.5t23 -35t8.5 -42q0 -23 -9 -43t-24 -35t-35 -23.5t-42 -8.5h-5h-684q-22 2 -37 17.5t-16 38.5zM287 1784q0 26 12 48.5t32 36.5 l235 213q17 18 42.5 18t43.5 -18l-1 1l245 -221q17 -15 26 -35t9 -43q0 -21 -8 -39.5t-21.5 -32t-32 -21.5t-39.5 -8q-23 0 -42 9t-34 24l-105 99q-16 16 -37 17.5t-38 -11.5l-114 -106q-30 -30 -72 -30q-21 0 -39.5 7.5t-32 21t-21.5 31.5t-8 39z" />
<glyph unicode="&#xcb;" horiz-adv-x="1158" d="M183 58v1435q2 23 17 38.5t38 16.5h682h6q22 0 42 -8.5t35 -23.5t23.5 -35t8.5 -42q0 -23 -8.5 -43t-23.5 -35t-35 -23.5t-43 -8.5h-3v-1h-451q-23 0 -38 -16t-17 -39v-338q1 -24 18 -40.5t40 -16.5l436 -1q22 0 41.5 -9t34 -23.5t23 -34.5t8.5 -42q0 -23 -8.5 -42.5 t-23 -34.5t-34 -23.5t-41.5 -9.5h-1h-2h-3h-433q-23 -1 -38 -16.5t-17 -38.5v-326q1 -23 16.5 -38.5t37.5 -17.5h450h6q23 0 43 -8.5t34.5 -23.5t23 -35t8.5 -42q0 -23 -9 -43t-24 -35t-35 -23.5t-42 -8.5h-5h-684q-22 2 -37 17.5t-16 38.5zM253 1844q0 58 42 100t100 42 q60 0 101 -42q42 -42 42 -102q0 -59 -42 -101q-41 -42 -100 -42q-60 0 -102 42q-41 44 -41 103zM702 1844q0 58 42 100t101 42t101 -42t42 -102q0 -59 -42 -101t-101 -42q-60 0 -102 42q-41 44 -41 103z" />
<glyph unicode="&#xcc;" horiz-adv-x="604" d="M-38.5 1964q-1.5 21 6 43.5t26.5 45.5q17 19 38.5 28.5t43.5 10.5t41 -5t31 -18q2 -2 3 -3.5t3 -3.5l206 -196q1 -1 3 -2.5t4 -3.5q29 -24 31.5 -60.5t-21.5 -63.5q-12 -14 -28 -22t-33 -9.5t-34 3.5t-31 17q-1 1 0 1h-1l-252 166q-2 1 -2 1.5t-2 1.5q-14 12 -22.5 30 t-10 39zM184 125v1302v3q0 24 9 45.5t24.5 37.5t37 25t45.5 9t45.5 -9.5t37.5 -25.5t25 -37.5t9 -45.5v-2v-1302v-7q0 -24 -9 -45.5t-25 -37.5t-37 -25t-45 -9t-45 10.5t-37 28t-25 39.5t-10 46z" />
<glyph unicode="&#xcd;" horiz-adv-x="604" d="M184 125v1302v3q0 24 9 45.5t24.5 37.5t37 25t45.5 9t45.5 -9.5t37.5 -25.5t25 -37.5t9 -45.5v-2v-1302v-7q0 -24 -9 -45.5t-25 -37.5t-37 -25t-45 -9t-45 10.5t-37 28t-25 39.5t-10 46zM207.5 1799.5q2.5 36.5 31.5 60.5q2 2 4 3.5t3 2.5l206 196q2 2 3 3.5t3 3.5 q12 12 31 18t41 5t43.5 -10.5t38.5 -28.5q19 -23 26.5 -45.5t6 -43.5t-10.5 -39t-22 -30q-2 -1 -2 -1.5t-2 -1.5l-252 -166h-1q1 0 0 -1q-14 -12 -31 -17t-34 -3.5t-33 9.5t-28 22q-24 27 -21.5 63.5z" />
<glyph unicode="&#xce;" horiz-adv-x="604" d="M-19 1784q0 26 12 48.5t32 36.5l235 213q17 18 42.5 18t43.5 -18l-1 1l245 -221q17 -15 26 -35t9 -43q0 -21 -8 -39.5t-21.5 -32t-32 -21.5t-39.5 -8q-23 0 -42 9t-34 24l-105 99q-16 16 -37 17.5t-38 -11.5l-114 -106q-30 -30 -72 -30q-21 0 -39.5 7.5t-32 21 t-21.5 31.5t-8 39zM184 125v1302v3q0 24 9 45.5t24.5 37.5t37 25t45.5 9t45.5 -9.5t37.5 -25.5t25 -37.5t9 -45.5v-2v-1302v-7q0 -24 -9 -45.5t-25 -37.5t-37 -25t-45 -9t-45 10.5t-37 28t-25 39.5t-10 46z" />
<glyph unicode="&#xcf;" horiz-adv-x="604" d="M-29 1844q0 56 41 100q42 42 101 42t101 -42t42 -102q0 -59 -42 -101t-101 -42q-61 0 -101 42q-41 44 -41 103zM184 125v1302v3q0 24 9 45.5t24.5 37.5t37 25t45.5 9t45.5 -9.5t37.5 -25.5t25 -37.5t9 -45.5v-2v-1302v-7q0 -24 -9 -45.5t-25 -37.5t-37 -25t-45 -9 t-45 10.5t-37 28t-25 39.5t-10 46zM348 1844q0 58 42 100q43 42 101 42q59 0 101 -42t42 -102q0 -59 -42 -101t-101 -42t-101 42t-42 103z" />
<glyph unicode="&#xd0;" horiz-adv-x="1487" d="M46 703v200h139v641h324q233 0 368 -46q145 -45 263 -153q239 -218 239 -573q0 -356 -249 -576q-125 -110 -262 -153q-128 -43 -363 -43h-320v703h-139zM418 219h105q157 0 261 33q104 34 188 110q172 157 172 409q0 255 -170 413q-153 141 -451 141h-105v-422h332v-200 h-332v-484z" />
<glyph unicode="&#xd1;" horiz-adv-x="1729" d="M400 116v1371q1 6 4 16t9.5 19.5t17 16t25.5 6.5q18 0 32 -5t26 -13.5t23 -19t22 -22.5l613 -867q10 -9 17 -11t10.5 0.5t5.5 8t2 10.5v809v2q1 23 10.5 43t25.5 35t36.5 23.5t43.5 8.5q24 0 45.5 -9.5t37.5 -25t25 -37t9 -45.5v-1330q0 -18 -2 -34.5t-8 -29.5t-16 -22 t-26 -11q-20 -3 -34.5 3.5t-26.5 17.5t-22.5 24.5t-22.5 24.5l-27 29l-2 2l-580 829q-12 12 -20 15t-12.5 0t-6 -9t-2.5 -12v-8h1h-1v-802q0 -24 -9 -45t-25 -36.5t-37 -24.5t-45 -9t-44.5 9t-36.5 24.5t-25 36t-10 44.5zM449 1810l29 41q28 40 54 67.5t53 45t56 25t63 7.5 q78 0 181 -52q104 -53 134 -53q56 0 124 108l127 -106q-96 -192 -260 -192q-56 0 -183 56q-91 46 -136 46q-55 0 -111 -104z" />
<glyph unicode="&#xd2;" horiz-adv-x="1830" d="M108 779q0 326 239 560q238 234 572 234q330 0 566 -236q237 -236 237 -567q0 -333 -238 -565q-239 -233 -577 -233q-299 0 -537 207q-262 229 -262 600zM343 776q0 -256 172 -421q171 -165 395 -165q243 0 410 168q167 170 167 414q0 247 -165 414q-164 168 -406 168 q-241 0 -407 -168q-166 -166 -166 -410zM630.5 1964q-1.5 21 6 43.5t26.5 45.5q17 19 38.5 28.5t43.5 10.5t41 -5t31 -18q2 -2 3 -3.5t3 -3.5l206 -196q1 -1 3 -2.5t4 -3.5q29 -24 31.5 -60.5t-21.5 -63.5q-12 -14 -28 -22t-33 -9.5t-34 3.5t-31 17q-1 1 0 1h-1l-252 166 q-2 1 -2 1.5t-2 1.5q-14 12 -22.5 30t-10 39z" />
<glyph unicode="&#xd3;" horiz-adv-x="1830" d="M108 779q0 326 239 560q238 234 572 234q330 0 566 -236q237 -236 237 -567q0 -333 -238 -565q-239 -233 -577 -233q-299 0 -537 207q-262 229 -262 600zM343 776q0 -256 172 -421q171 -165 395 -165q243 0 410 168q167 170 167 414q0 247 -165 414q-164 168 -406 168 q-241 0 -407 -168q-166 -166 -166 -410zM777.5 1799.5q2.5 36.5 31.5 60.5q2 2 4 3.5t3 2.5l206 196q2 2 3 3.5t3 3.5q12 12 31 18t41 5t43.5 -10.5t38.5 -28.5q19 -23 26.5 -45.5t6 -43.5t-10.5 -39t-22 -30q-2 -1 -2 -1.5t-2 -1.5l-252 -166h-1q1 0 0 -1q-14 -12 -31 -17 t-34 -3.5t-33 9.5t-28 22q-24 27 -21.5 63.5z" />
<glyph unicode="&#xd4;" horiz-adv-x="1830" d="M108 779q0 326 239 560q238 234 572 234q330 0 566 -236q237 -236 237 -567q0 -333 -238 -565q-239 -233 -577 -233q-299 0 -537 207q-262 229 -262 600zM343 776q0 -256 172 -421q171 -165 395 -165q243 0 410 168q167 170 167 414q0 247 -165 414q-164 168 -406 168 q-241 0 -407 -168q-166 -166 -166 -410zM599 1784q0 26 12 48.5t32 36.5l235 213q17 18 42.5 18t43.5 -18l-1 1l245 -221q17 -15 26 -35t9 -43q0 -21 -8 -39.5t-21.5 -32t-32 -21.5t-39.5 -8q-23 0 -42 9t-34 24l-105 99q-16 16 -37 17.5t-38 -11.5l-114 -106 q-30 -30 -72 -30q-21 0 -39.5 7.5t-32 21t-21.5 31.5t-8 39z" />
<glyph unicode="&#xd5;" horiz-adv-x="1830" d="M108 779q0 326 239 560q238 234 572 234q330 0 566 -236q237 -236 237 -567q0 -333 -238 -565q-239 -233 -577 -233q-299 0 -537 207q-262 229 -262 600zM343 776q0 -256 172 -421q171 -165 395 -165q243 0 410 168q167 170 167 414q0 247 -165 414q-164 168 -406 168 q-241 0 -407 -168q-166 -166 -166 -410zM480 1810l29 41q28 40 54 67.5t53 45t56 25t63 7.5q78 0 181 -52q104 -53 134 -53q56 0 124 108l127 -106q-96 -192 -260 -192q-56 0 -183 56q-91 46 -136 46q-55 0 -111 -104z" />
<glyph unicode="&#xd6;" horiz-adv-x="1830" d="M108 779q0 326 239 560q238 234 572 234q330 0 566 -236q237 -236 237 -567q0 -333 -238 -565q-239 -233 -577 -233q-299 0 -537 207q-262 229 -262 600zM343 776q0 -256 172 -421q171 -165 395 -165q243 0 410 168q167 170 167 414q0 247 -165 414q-164 168 -406 168 q-241 0 -407 -168q-166 -166 -166 -410zM550 1844q0 58 42 100t100 42q60 0 101 -42q42 -42 42 -102q0 -59 -42 -101q-41 -42 -100 -42q-60 0 -102 42q-41 44 -41 103zM999 1844q0 58 42 100t101 42t101 -42t42 -102q0 -59 -42 -101t-101 -42q-60 0 -102 42q-41 44 -41 103z " />
<glyph unicode="&#xd7;" d="M175 473l330 330l-330 330l127 127l329 -330l330 330l127 -127l-330 -330l330 -330l-127 -126l-330 329l-329 -329z" />
<glyph unicode="&#xd8;" horiz-adv-x="1828" d="M108 766q0 346 245 579q240 228 567 228q260 0 481 -162l167 170l134 -133l-165 -169q183 -228 183 -511q0 -328 -237 -562t-569 -234q-277 0 -511 177l-166 -165l-128 131l161 166q-162 216 -162 485zM343 763q0 -165 97 -322l798 816q-145 97 -319 97q-247 0 -412 -169 q-164 -170 -164 -422zM569 307q169 -117 348 -117q236 0 402 169t166 412q0 191 -113 355z" />
<glyph unicode="&#xd9;" horiz-adv-x="1513" d="M185 547v886q0 24 9.5 45t25.5 37t37 25t45 9t45.5 -9t37.5 -25t25.5 -37t9.5 -45v-821q0 -199 65 -293q99 -134 276 -134q179 0 275 134q67 89 67 293v821q0 24 9 45t25 37t37 25t45 9q25 0 46.5 -9t37.5 -25t25 -37t9 -45h1v-886q0 -244 -154 -406q-170 -176 -423 -176 t-423 176q-153 160 -153 406zM468.5 1964q-1.5 21 6 43.5t26.5 45.5q17 19 38.5 28.5t43.5 10.5t41 -5t31 -18q2 -2 3 -3.5t3 -3.5l206 -196q1 -1 3 -2.5t4 -3.5q29 -24 31.5 -60.5t-21.5 -63.5q-12 -14 -28 -22t-33 -9.5t-34 3.5t-31 17q-1 1 0 1h-1l-252 166q-2 1 -2 1.5 t-2 1.5q-14 12 -22.5 30t-10 39z" />
<glyph unicode="&#xda;" horiz-adv-x="1513" d="M185 547v886q0 24 9.5 45t25.5 37t37 25t45 9t45.5 -9t37.5 -25t25.5 -37t9.5 -45v-821q0 -199 65 -293q99 -134 276 -134q179 0 275 134q67 89 67 293v821q0 24 9 45t25 37t37 25t45 9q25 0 46.5 -9t37.5 -25t25 -37t9 -45h1v-886q0 -244 -154 -406q-170 -176 -423 -176 t-423 176q-153 160 -153 406zM591 1776l321 322l198 -139l-408 -276z" />
<glyph unicode="&#xdb;" horiz-adv-x="1513" d="M185 547v886q0 24 9.5 45t25.5 37t37 25t45 9t45.5 -9t37.5 -25t25.5 -37t9.5 -45v-821q0 -199 65 -293q99 -134 276 -134q179 0 275 134q67 89 67 293v821q0 24 9 45t25 37t37 25t45 9q25 0 46.5 -9t37.5 -25t25 -37t9 -45h1v-886q0 -244 -154 -406q-170 -176 -423 -176 t-423 176q-153 160 -153 406zM431 1784q0 26 12 48.5t32 36.5l235 213q17 18 42.5 18t43.5 -18l-1 1l245 -221q17 -15 26 -35t9 -43q0 -21 -8 -39.5t-21.5 -32t-32 -21.5t-39.5 -8q-23 0 -42 9t-34 24l-105 99q-16 16 -37 17.5t-38 -11.5l-114 -106q-30 -30 -72 -30 q-21 0 -39.5 7.5t-32 21t-21.5 31.5t-8 39z" />
<glyph unicode="&#xdc;" horiz-adv-x="1513" d="M185 547v886q0 24 9.5 45t25.5 37t37 25t45 9t45.5 -9t37.5 -25t25.5 -37t9.5 -45v-821q0 -199 65 -293q99 -134 276 -134q179 0 275 134q67 89 67 293v821q0 24 9 45t25 37t37 25t45 9q25 0 46.5 -9t37.5 -25t25 -37t9 -45h1v-886q0 -244 -154 -406q-170 -176 -423 -176 t-423 176q-153 160 -153 406zM389 1844q0 58 42 100t100 42q60 0 101 -42q42 -42 42 -102q0 -59 -42 -101q-41 -42 -100 -42q-60 0 -102 42q-41 44 -41 103zM838 1844q0 58 42 100t101 42t101 -42t42 -102q0 -59 -42 -101t-101 -42q-60 0 -102 42q-41 44 -41 103z" />
<glyph unicode="&#xdd;" horiz-adv-x="1229" d="M76 1432q0 24 9 45.5t25 37t37 25t45 9.5q35 0 63.5 -19t42.5 -49l1 1l303 -531l3.5 -3.5t5.5 -4t7 0t9 8.5l305 530q14 29 42 47.5t63 18.5q24 0 45 -9t37 -25t25 -37t9 -45q0 -31 -13 -54l-400 -693q-8 -14 -9 -24q-1 -6 -1 -11v-533q0 -24 -9.5 -45t-25.5 -37t-37 -25 t-45 -9t-45 9.5t-37 25t-25 36.5t-9 45v2v532q-1 3 -2.5 13.5t-7.5 21.5v1l-393 682q-18 27 -18 63zM500 1776l321 322l198 -139l-408 -276z" />
<glyph unicode="&#xde;" horiz-adv-x="1106" d="M185 0v1544h233v-216h31q203 0 293 -28q97 -25 176 -101q133 -130 133 -329q0 -211 -142 -335t-383 -124h-108v-411h-233zM418 627h87q321 0 321 247q0 239 -331 239h-77v-486z" />
<glyph unicode="&#xdf;" horiz-adv-x="1274" d="M62 774v200h80v247q0 239 114 361q126 134 347 134q198 0 327 -123q130 -121 130 -309q0 -198 -165 -310q129 -57 206 -182t77 -275q0 -280 -245 -447q-152 -102 -368 -102v216q174 0 277 94q106 94 106 245q0 165 -125 252q-80 54 -258 72v207q134 0 203 62.5t69 177.5 q0 96 -65 158q-64 61 -168 61q-121 0 -176.5 -67.5t-55.5 -212.5l-4 -123v-1110h-226v774h-80z" />
<glyph unicode="&#xe0;" horiz-adv-x="1228" d="M95 489q0 219 132 365q129 146 327 146q168 0 303 -140q0 23 9 43.5t24 36t35.5 24.5t43.5 9q24 0 45 -9t36.5 -24.5t24.5 -36t9 -43.5q0 -2 -0.5 -3t-0.5 -2h1l-1 -799q0 -23 -16.5 -39.5t-40.5 -16.5h-112q-23 0 -39 14.5t-18 37.5v50q-139 -130 -297 -130 q-202 0 -333 146q-132 148 -132 371zM325 489q0 -138 76 -226q78 -90 193 -90q124 0 202 86q77 91 77 225q0 136 -77 225q-77 87 -201 87q-114 0 -192 -87q-78 -90 -78 -220zM333 1433q1 21 11 43t32 42q19 18 41.5 24.5t44 5t40 -10t29.5 -21.5q2 -2 2.5 -3.5t2.5 -3.5 l182 -218q1 -2 6 -7q13 -14 19 -30.5t5.5 -33.5t-8 -33t-20.5 -28q-14 -12 -30.5 -18t-33.5 -5.5t-33 7t-29 20.5q-1 1 0 1h-1l-232 194q-1 1 -1 1.5t-2 1.5q-12 14 -19 32.5t-6 39.5z" />
<glyph unicode="&#xe1;" horiz-adv-x="1228" d="M95 489q0 219 132 365q129 146 327 146q168 0 303 -140q0 23 9 43.5t24 36t35.5 24.5t43.5 9q24 0 45 -9t36.5 -24.5t24.5 -36t9 -43.5q0 -2 -0.5 -3t-0.5 -2h1l-1 -799q0 -23 -16.5 -39.5t-40.5 -16.5h-112q-23 0 -39 14.5t-18 37.5v50q-139 -130 -297 -130 q-202 0 -333 146q-132 148 -132 371zM325 489q0 -138 76 -226q78 -90 193 -90q124 0 202 86q77 91 77 225q0 136 -77 225q-77 87 -201 87q-114 0 -192 -87q-78 -90 -78 -220zM487.5 1245.5q2.5 36.5 31.5 60.5q2 2 4 3.5t3 2.5l206 196q2 2 3 3.5t3 3.5q12 12 31 18t41 5 t43.5 -10.5t38.5 -28.5q19 -23 26.5 -45.5t6 -43.5t-10.5 -39t-22 -30q-2 -1 -2 -1.5t-2 -1.5l-252 -166h-1q1 0 0 -1q-14 -12 -31 -17t-34 -3.5t-33 9.5t-28 22q-24 27 -21.5 63.5z" />
<glyph unicode="&#xe2;" horiz-adv-x="1228" d="M95 489q0 219 132 365q129 146 327 146q168 0 303 -140q0 23 9 43.5t24 36t35.5 24.5t43.5 9q24 0 45 -9t36.5 -24.5t24.5 -36t9 -43.5q0 -2 -0.5 -3t-0.5 -2h1l-1 -799q0 -23 -16.5 -39.5t-40.5 -16.5h-112q-23 0 -39 14.5t-18 37.5v50q-139 -130 -297 -130 q-202 0 -333 146q-132 148 -132 371zM310 1230q0 26 12 48.5t32 36.5l235 213q17 18 42.5 18t43.5 -18l-1 1l245 -221q17 -15 26 -35t9 -43q0 -21 -8 -39.5t-21.5 -32t-32 -21.5t-39.5 -8q-23 0 -42 9t-34 24l-105 99q-16 16 -37 17.5t-38 -11.5l-114 -106q-30 -30 -72 -30 q-21 0 -39.5 7.5t-32 21t-21.5 31.5t-8 39zM325 489q0 -138 76 -226q78 -90 193 -90q124 0 202 86q77 91 77 225q0 136 -77 225q-77 87 -201 87q-114 0 -192 -87q-78 -90 -78 -220z" />
<glyph unicode="&#xe3;" horiz-adv-x="1228" d="M95 489q0 219 132 365q129 146 327 146q168 0 303 -140q0 23 9 43.5t24 36t35.5 24.5t43.5 9q24 0 45 -9t36.5 -24.5t24.5 -36t9 -43.5q0 -2 -0.5 -3t-0.5 -2h1l-1 -799q0 -23 -16.5 -39.5t-40.5 -16.5h-112q-23 0 -39 14.5t-18 37.5v50q-139 -130 -297 -130 q-202 0 -333 146q-132 148 -132 371zM219 1251l29 41q28 40 54 67.5t53 45t56 25t63 7.5q78 0 181 -52q104 -53 134 -53q56 0 124 108l127 -106q-96 -192 -260 -192q-56 0 -183 56q-91 46 -136 46q-55 0 -111 -104zM325 489q0 -138 76 -226q78 -90 193 -90q124 0 202 86 q77 91 77 225q0 136 -77 225q-77 87 -201 87q-114 0 -192 -87q-78 -90 -78 -220z" />
<glyph unicode="&#xe4;" horiz-adv-x="1228" d="M95 489q0 219 132 365q129 146 327 146q168 0 303 -140q0 23 9 43.5t24 36t35.5 24.5t43.5 9q24 0 45 -9t36.5 -24.5t24.5 -36t9 -43.5q0 -2 -0.5 -3t-0.5 -2h1l-1 -799q0 -23 -16.5 -39.5t-40.5 -16.5h-112q-23 0 -39 14.5t-18 37.5v50q-139 -130 -297 -130 q-202 0 -333 146q-132 148 -132 371zM269 1284q0 58 42 99q42 42 101 42t101 -42q42 -41 42 -100q0 -60 -42 -102q-44 -41 -101 -41q-60 0 -102 42q-41 44 -41 102zM325 489q0 -138 76 -226q78 -90 193 -90q124 0 202 86q77 91 77 225q0 136 -77 225q-77 87 -201 87 q-114 0 -192 -87q-78 -90 -78 -220zM687 1284q0 58 42 99q43 42 101 42q60 0 101 -42q42 -41 42 -100q0 -60 -42 -102q-44 -41 -101 -41q-59 0 -101 42t-42 102z" />
<glyph unicode="&#xe5;" horiz-adv-x="1228" d="M95 489q0 219 132 365q129 146 327 146q168 0 303 -140q0 23 9 43.5t24 36t35.5 24.5t43.5 9q24 0 45 -9t36.5 -24.5t24.5 -36t9 -43.5q0 -2 -0.5 -3t-0.5 -2h1l-1 -799q0 -23 -16.5 -39.5t-40.5 -16.5h-112q-23 0 -39 14.5t-18 37.5v50q-139 -130 -297 -130 q-202 0 -333 146q-132 148 -132 371zM325 489q0 -138 76 -226q78 -90 193 -90q124 0 202 86q77 91 77 225q0 136 -77 225q-77 87 -201 87q-114 0 -192 -87q-78 -90 -78 -220zM403 1345q0 88 64 151q64 64 153 64q91 0 154 -64q64 -64 64 -154t-64 -154q-63 -64 -153 -64 q-91 0 -155 64q-63 64 -63 157zM522 1343q0 -43 28.5 -71.5t70.5 -28.5t70.5 28.5t28.5 70.5t-28.5 70.5t-70.5 28.5q-21 0 -39 -8t-31.5 -21.5t-21 -31.5t-7.5 -37z" />
<glyph unicode="&#xe6;" horiz-adv-x="1701" d="M119 276q0 132 73.5 206t222.5 95q86 12 142.5 18.5t90 16t47 27t13.5 51.5q0 31 -8 52.5t-26.5 35t-49 19t-76.5 5.5q-42 0 -76 -13.5t-62 -36.5q-16 -14 -30.5 -31t-32 -31.5t-38.5 -24t-50 -9.5q-42 0 -67 27.5t-25 70.5q0 48 27 93t78 79.5t123.5 55.5t163.5 21 q100 0 179.5 -27t130.5 -76q59 56 127.5 79.5t157.5 23.5q101 0 183.5 -33.5t141.5 -96t91.5 -150t32.5 -195.5q0 -40 -8.5 -62.5t-26 -33t-45 -13t-65.5 -2.5h-21h-492q3 -115 57.5 -176.5t151.5 -61.5q51 0 89.5 11.5t63.5 34.5q18 16 33.5 31.5t31.5 27.5t34 19t40 7 q45 0 74 -28t29 -70q0 -30 -17 -60t-49 -61q-126 -121 -347 -121q-112 0 -193 43t-131 126q-62 -88 -158 -128.5t-233 -40.5q-149 0 -225.5 78.5t-76.5 227.5zM370 280q0 -55 35.5 -85.5t103.5 -30.5q44 0 81.5 15.5t65 41t43 59.5t15.5 70v124q-44 -20 -84 -31t-75.5 -18 t-65 -13.5t-51.5 -17.5q-34 -15 -51 -44t-17 -70zM947 588h391v6q0 96 -52.5 149t-145.5 53q-85 0 -137.5 -55t-55.5 -153z" />
<glyph unicode="&#xe7;" horiz-adv-x="976" d="M93 483q0 218 155 369q154 151 380 151q104 0 200 -36q31 -11 51.5 -38t20.5 -63q0 -22 -8.5 -41.5t-22.5 -34t-33.5 -23t-41.5 -8.5q-26 0 -50 13q-55 26 -123 26q-128 0 -212 -87q-84 -90 -84 -225q0 -139 81 -226q84 -87 211 -87q75 0 134 31q22 10 45 10 q22 0 41 -8.5t33 -23t22 -33.5t8 -41q0 -35 -20.5 -62t-52.5 -37q-101 -39 -200 -39q-227 0 -381 147q-153 148 -153 366zM362.5 -432.5q-6.5 29.5 12.5 54.5q1 4 2.5 5t1.5 3l123 203q2 1 2.5 2.5t0.5 3.5q9 13 22 21.5t31.5 12.5t38 1t36.5 -13q20 -16 32.5 -32t15 -34 t0 -34.5t-13.5 -28.5q-1 -1 -0.5 -1t-1.5 -2l-167 -190h-1q-8 -13 -20.5 -21t-27 -10t-28.5 0.5t-28 11.5q-24 18 -30.5 47.5z" />
<glyph unicode="&#xe8;" horiz-adv-x="1133" d="M92 485q0 231 128 374q128 141 343 141q109 0 193 -33.5t147 -103.5q125 -136 125 -376q-2 -23 -18.5 -39t-39.5 -16h-590q-4 0 -13 -1t-17.5 -5.5t-13.5 -14t-2 -26.5q16 -87 71 -143q70 -70 178 -70q84 0 140 40q15 11 31.5 28.5t35.5 40.5q15 21 38.5 33t49.5 12 q23 0 43 -8.5t34.5 -23.5t23 -35t8.5 -42q0 -39 -24 -69q-1 -2 -2 -2.5t-2 -1.5l-16 -19q-48 -52 -106 -89q-56 -33 -121 -50q-64 -16 -141 -16q-219 0 -351 141q-132 139 -132 374zM286 1433q1 21 11 43t32 42q19 18 41.5 24.5t44 5t40 -10t29.5 -21.5q2 -2 2.5 -3.5 t2.5 -3.5l182 -218q1 -2 6 -7q13 -14 19 -30.5t5.5 -33.5t-8 -33t-20.5 -28q-14 -12 -30.5 -18t-33.5 -5.5t-33 7t-29 20.5q-1 1 0 1h-1l-232 194q-1 1 -1 1.5t-2 1.5q-12 14 -19 32.5t-6 39.5zM355 648.5q-1 -7.5 2 -14.5t11.5 -12.5t26.5 -5.5h3h353q14 1 21 6.5t9.5 12 t1.5 13t-2 11.5q-56 138 -213 138q-44 0 -77 -13q-36 -12 -66 -36q-15 -12 -27.5 -25.5t-22.5 -30.5q-5 -8 -9 -15.5t-8 -15.5q-2 -5 -3 -12.5z" />
<glyph unicode="&#xe9;" horiz-adv-x="1133" d="M92 485q0 231 128 374q128 141 343 141q109 0 193 -33.5t147 -103.5q125 -136 125 -376q-2 -23 -18.5 -39t-39.5 -16h-590q-4 0 -13 -1t-17.5 -5.5t-13.5 -14t-2 -26.5q16 -87 71 -143q70 -70 178 -70q84 0 140 40q15 11 31.5 28.5t35.5 40.5q15 21 38.5 33t49.5 12 q23 0 43 -8.5t34.5 -23.5t23 -35t8.5 -42q0 -39 -24 -69q-1 -2 -2 -2.5t-2 -1.5l-16 -19q-48 -52 -106 -89q-56 -33 -121 -50q-64 -16 -141 -16q-219 0 -351 141q-132 139 -132 374zM355 648.5q-1 -7.5 2 -14.5t11.5 -12.5t26.5 -5.5h3h353q14 1 21 6.5t9.5 12t1.5 13 t-2 11.5q-56 138 -213 138q-44 0 -77 -13q-36 -12 -66 -36q-15 -12 -27.5 -25.5t-22.5 -30.5q-5 -8 -9 -15.5t-8 -15.5q-2 -5 -3 -12.5zM426.5 1243.5q2.5 36.5 31.5 60.5q2 2 4 3.5t3 2.5l206 196q2 2 3 3.5t3 3.5q12 12 31 18t41 5t43.5 -10.5t38.5 -28.5 q19 -23 26.5 -45.5t6 -43.5t-10.5 -39t-22 -30q-2 -1 -2 -1.5t-2 -1.5l-252 -166h-1q1 0 0 -1q-14 -12 -31 -17t-34 -3.5t-33 9.5t-28 22q-24 27 -21.5 63.5z" />
<glyph unicode="&#xea;" horiz-adv-x="1133" d="M92 485q0 231 128 374q128 141 343 141q109 0 193 -33.5t147 -103.5q125 -136 125 -376q-2 -23 -18.5 -39t-39.5 -16h-590q-4 0 -13 -1t-17.5 -5.5t-13.5 -14t-2 -26.5q16 -87 71 -143q70 -70 178 -70q84 0 140 40q15 11 31.5 28.5t35.5 40.5q15 21 38.5 33t49.5 12 q23 0 43 -8.5t34.5 -23.5t23 -35t8.5 -42q0 -39 -24 -69q-1 -2 -2 -2.5t-2 -1.5l-16 -19q-48 -52 -106 -89q-56 -33 -121 -50q-64 -16 -141 -16q-219 0 -351 141q-132 139 -132 374zM258 1230q0 26 12 48.5t32 36.5l235 213q17 18 42.5 18t43.5 -18l-1 1l245 -221 q17 -15 26 -35t9 -43q0 -21 -8 -39.5t-21.5 -32t-32 -21.5t-39.5 -8q-23 0 -42 9t-34 24l-105 99q-16 16 -37 17.5t-38 -11.5l-114 -106q-30 -30 -72 -30q-21 0 -39.5 7.5t-32 21t-21.5 31.5t-8 39zM355 648.5q-1 -7.5 2 -14.5t11.5 -12.5t26.5 -5.5h3h353q14 1 21 6.5 t9.5 12t1.5 13t-2 11.5q-56 138 -213 138q-44 0 -77 -13q-36 -12 -66 -36q-15 -12 -27.5 -25.5t-22.5 -30.5q-5 -8 -9 -15.5t-8 -15.5q-2 -5 -3 -12.5z" />
<glyph unicode="&#xeb;" horiz-adv-x="1133" d="M92 485q0 231 128 374q128 141 343 141q109 0 193 -33.5t147 -103.5q125 -136 125 -376q-2 -23 -18.5 -39t-39.5 -16h-590q-4 0 -13 -1t-17.5 -5.5t-13.5 -14t-2 -26.5q16 -87 71 -143q70 -70 178 -70q84 0 140 40q15 11 31.5 28.5t35.5 40.5q15 21 38.5 33t49.5 12 q23 0 43 -8.5t34.5 -23.5t23 -35t8.5 -42q0 -39 -24 -69q-1 -2 -2 -2.5t-2 -1.5l-16 -19q-48 -52 -106 -89q-56 -33 -121 -50q-64 -16 -141 -16q-219 0 -351 141q-132 139 -132 374zM225 1284q0 58 42 99q42 42 101 42t101 -42q42 -41 42 -100q0 -60 -42 -102 q-44 -41 -101 -41q-60 0 -102 42q-41 44 -41 102zM355 648.5q-1 -7.5 2 -14.5t11.5 -12.5t26.5 -5.5h3h353q14 1 21 6.5t9.5 12t1.5 13t-2 11.5q-56 138 -213 138q-44 0 -77 -13q-36 -12 -66 -36q-15 -12 -27.5 -25.5t-22.5 -30.5q-5 -8 -9 -15.5t-8 -15.5q-2 -5 -3 -12.5z M643 1284q0 58 42 99q43 42 101 42q60 0 101 -42q42 -41 42 -100q0 -60 -42 -102q-44 -41 -101 -41q-59 0 -101 42t-42 102z" />
<glyph unicode="&#xec;" horiz-adv-x="510" d="M-59 1437.5q-4 19.5 0 40.5t17.5 41t37.5 37q21 15 44.5 18t44.5 -1.5t38 -15.5t26 -25q2 -2 2 -4t2 -4l148 -243q1 -1 2 -3t3 -4q11 -15 14.5 -32.5t0.5 -34t-12.5 -31.5t-24.5 -25q-30 -20 -66.5 -14.5t-57.5 36.5q-1 1 0 1h-1l-201 225q-2 2 -1.5 2.5t-1.5 1.5 q-10 15 -14 34.5zM142 0v974h225v-974h-225z" />
<glyph unicode="&#xed;" horiz-adv-x="510" d="M142 0v974h225v-974h-225zM189 1237.5q3 17.5 13 33.5q4 6 5 8l140 247q2 2 2 3.5t2 3.5q8 15 25 26.5t38 17t44 3t45 -16.5q25 -16 39 -36t18.5 -40.5t1 -40t-12.5 -35.5q-2 -1 -2 -1.5t-1 -1.5l-194 -232h-1q1 0 0 -1q-10 -16 -24.5 -25.5t-31.5 -13t-34 -0.5t-33 13 q-15 9 -25 23.5t-13.5 31t-0.5 34z" />
<glyph unicode="&#xee;" horiz-adv-x="510" d="M-68 1240q0 26 12 48.5t32 36.5l235 213q17 18 42.5 18t43.5 -18l-1 1l245 -221q17 -15 26 -35t9 -43q0 -21 -8 -39.5t-21.5 -32t-32 -21.5t-39.5 -8q-23 0 -42 9t-34 24l-105 99q-16 16 -37 17.5t-38 -11.5l-114 -106q-30 -30 -72 -30q-21 0 -39.5 7.5t-32 21 t-21.5 31.5t-8 39zM142 0v974h225v-974h-225z" />
<glyph unicode="&#xef;" horiz-adv-x="510" d="M-68 1284q0 58 42 99q40 42 100 42q59 0 101 -42q42 -41 42 -100q0 -60 -42 -102q-44 -41 -101 -41q-61 0 -101 42q-41 44 -41 102zM142 0v974h225v-974h-225zM294 1284q0 58 42 99q42 42 101 42t101 -42q42 -41 42 -100q0 -60 -42 -102q-44 -41 -101 -41q-60 0 -102 42 q-41 44 -41 102z" />
<glyph unicode="&#xf0;" horiz-adv-x="1231" d="M96 483q0 218 150 367q152 149 372 149q82 0 157 -22q-61 109 -131 200.5t-151 166.5l-240 -129l-73 131l190 100q-27 16 -36 21l-72 36l-81 42q-12 6 -54 21l92 140q67 -23 137.5 -57t145.5 -80l45 -27l236 124l79 -130l-187 -100q216 -200 338 -448q122 -255 122 -484 q0 -231 -146 -383q-146 -149 -370 -149q-222 0 -373 147q-150 147 -150 364zM326 489q0 -145 78 -230q80 -86 211 -86q132 0 211 85t79 227q0 141 -79 226q-80 86 -211 86q-129 0 -209 -86t-80 -222z" />
<glyph unicode="&#xf1;" horiz-adv-x="1123" d="M136 111q0 11 1 16v732q0 24 9 45t25 37t37 25t45 9q20 0 38.5 -7t33.5 -19t25.5 -29t14.5 -36q119 118 269 118q171 0 266 -108q83 -90 83 -298v-482q0 -2 -0.5 -4.5t-0.5 -4.5q-1 -23 -10.5 -42.5t-25 -34t-35.5 -23t-43 -8.5q-24 0 -44.5 9t-36 24.5t-24.5 36t-9 44.5 q0 9 1 14v416q0 145 -40 200q-41 57 -143 57q-114 0 -160 -75q-47 -73 -47 -256v-328q2 -7 2 -12.5v-13.5q0 -24 -9 -45.5t-24 -37.5t-36 -25.5t-45 -9.5t-45.5 9t-37.5 25t-25 37t-9 45zM139 1251l29 41q28 40 54 67.5t53 45t56 25t63 7.5q78 0 181 -52q104 -53 134 -53 q56 0 124 108l127 -106q-96 -192 -260 -192q-56 0 -183 56q-91 46 -136 46q-55 0 -111 -104z" />
<glyph unicode="&#xf2;" horiz-adv-x="1231" d="M96 494q0 211 151 359t368 148q218 0 370 -149q150 -149 150 -366q0 -219 -151 -367q-152 -147 -373 -147q-219 0 -367 150q-148 148 -148 372zM326 490q0 -146 78 -231q80 -86 211 -86q132 0 211 85t79 227t-79 227q-80 86 -211 86q-129 0 -209 -86t-80 -222zM335 1433 q1 21 11 43t32 42q19 18 41.5 24.5t44 5t40 -10t29.5 -21.5q2 -2 2.5 -3.5t2.5 -3.5l182 -218q1 -2 6 -7q13 -14 19 -30.5t5.5 -33.5t-8 -33t-20.5 -28q-14 -12 -30.5 -18t-33.5 -5.5t-33 7t-29 20.5q-1 1 0 1h-1l-232 194q-1 1 -1 1.5t-2 1.5q-12 14 -19 32.5t-6 39.5z" />
<glyph unicode="&#xf3;" horiz-adv-x="1231" d="M96 494q0 211 151 359t368 148q218 0 370 -149q150 -149 150 -366q0 -219 -151 -367q-152 -147 -373 -147q-219 0 -367 150q-148 148 -148 372zM326 490q0 -146 78 -231q80 -86 211 -86q132 0 211 85t79 227t-79 227q-80 86 -211 86q-129 0 -209 -86t-80 -222z M480.5 1219q-1.5 17 4 33.5t18.5 31.5q4 5 5 7l174 225q2 2 2 3.5t2 3.5q11 13 29 22.5t39.5 12t44 -3.5t42.5 -23q23 -19 34 -40.5t12.5 -42.5t-4.5 -40t-18 -33q-2 -1 -2 -1.5t-1 -1.5l-224 -203h-1q1 0 0 -1q-12 -15 -28 -22t-33 -8t-33.5 4.5t-31.5 16.5q-13 11 -21 27 t-9.5 33z" />
<glyph unicode="&#xf4;" horiz-adv-x="1231" d="M96 494q0 211 151 359t368 148q218 0 370 -149q150 -149 150 -366q0 -219 -151 -367q-152 -147 -373 -147q-219 0 -367 150q-148 148 -148 372zM296 1230q0 26 12 48.5t32 36.5l235 213q17 18 42.5 18t43.5 -18l-1 1l245 -221q17 -15 26 -35t9 -43q0 -21 -8 -39.5 t-21.5 -32t-32 -21.5t-39.5 -8q-23 0 -42 9t-34 24l-105 99q-16 16 -37 17.5t-38 -11.5l-114 -106q-30 -30 -72 -30q-21 0 -39.5 7.5t-32 21t-21.5 31.5t-8 39zM326 490q0 -146 78 -231q80 -86 211 -86q132 0 211 85t79 227t-79 227q-80 86 -211 86q-129 0 -209 -86 t-80 -222z" />
<glyph unicode="&#xf5;" horiz-adv-x="1231" d="M96 494q0 211 151 359t368 148q218 0 370 -149q150 -149 150 -366q0 -219 -151 -367q-152 -147 -373 -147q-219 0 -367 150q-148 148 -148 372zM228 1251l29 41q28 40 54 67.5t53 45t56 25t63 7.5q78 0 181 -52q104 -53 134 -53q56 0 124 108l127 -106 q-96 -192 -260 -192q-56 0 -183 56q-91 46 -136 46q-55 0 -111 -104zM326 490q0 -146 78 -231q80 -86 211 -86q132 0 211 85t79 227t-79 227q-80 86 -211 86q-129 0 -209 -86t-80 -222z" />
<glyph unicode="&#xf6;" horiz-adv-x="1231" d="M96 494q0 211 151 359t368 148q218 0 370 -149q150 -149 150 -366q0 -219 -151 -367q-152 -147 -373 -147q-219 0 -367 150q-148 148 -148 372zM263 1284q0 58 42 99q42 42 101 42t101 -42q42 -41 42 -100q0 -60 -42 -102q-44 -41 -101 -41q-60 0 -102 42q-41 44 -41 102 zM326 490q0 -146 78 -231q80 -86 211 -86q132 0 211 85t79 227t-79 227q-80 86 -211 86q-129 0 -209 -86t-80 -222zM681 1284q0 58 42 99q43 42 101 42q60 0 101 -42q42 -41 42 -100q0 -60 -42 -102q-44 -41 -101 -41q-59 0 -101 42t-42 102z" />
<glyph unicode="&#xf7;" d="M99 710v186h1065v-186h-1065zM502 459q0 52 38 90q41 38 92 38q53 0 91 -38t38 -92t-38 -92t-91 -38q-54 0 -92 38q-38 41 -38 94zM502 1151q0 52 38 90q41 38 92 38q53 0 91 -38t38 -92t-38 -92t-91 -38q-54 0 -92 38q-38 41 -38 94z" />
<glyph unicode="&#xf9;" horiz-adv-x="1116" d="M141 411v451v1q0 23 9 43.5t24 35.5t35.5 24t44.5 9q23 0 43.5 -9t35.5 -24t24 -35.5t9 -43.5v-1v-445q0 -243 191 -243t191 243v445q0 23 9 43.5t24 36t35.5 24.5t43.5 9q24 0 44.5 -9t35.5 -24.5t24 -36t9 -43.5v-8v-443q0 -115 -29 -202q-28 -76 -97 -137 q-114 -99 -290 -99q-175 0 -289 99q-35 31 -60 65t-39 72q-28 68 -28 202zM262 1433q1 21 11 43t32 42q19 18 41.5 24.5t44 5t40 -10t29.5 -21.5q2 -2 2.5 -3.5t2.5 -3.5l182 -218q1 -2 6 -7q13 -14 19 -30.5t5.5 -33.5t-8 -33t-20.5 -28q-14 -12 -30.5 -18t-33.5 -5.5 t-33 7t-29 20.5q-1 1 0 1h-1l-232 194q-1 1 -1 1.5t-2 1.5q-12 14 -19 32.5t-6 39.5z" />
<glyph unicode="&#xfa;" horiz-adv-x="1116" d="M141 411v451v1q0 23 9 43.5t24 35.5t35.5 24t44.5 9q23 0 43.5 -9t35.5 -24t24 -35.5t9 -43.5v-1v-445q0 -243 191 -243t191 243v445q0 23 9 43.5t24 36t35.5 24.5t43.5 9q24 0 44.5 -9t35.5 -24.5t24 -36t9 -43.5v-8v-443q0 -115 -29 -202q-28 -76 -97 -137 q-114 -99 -290 -99q-175 0 -289 99q-35 31 -60 65t-39 72q-28 68 -28 202zM438.5 1219q-1.5 17 4 33.5t18.5 31.5q4 5 5 7l174 225q2 2 2 3.5t2 3.5q11 13 29 22.5t39.5 12t44 -3.5t42.5 -23q23 -19 34 -40.5t12.5 -42.5t-4.5 -40t-18 -33q-2 -1 -2 -1.5t-1 -1.5l-224 -203 h-1q1 0 0 -1q-12 -15 -28 -22t-33 -8t-33.5 4.5t-31.5 16.5q-13 11 -21 27t-9.5 33z" />
<glyph unicode="&#xfb;" horiz-adv-x="1116" d="M141 411v451v1q0 23 9 43.5t24 35.5t35.5 24t44.5 9q23 0 43.5 -9t35.5 -24t24 -35.5t9 -43.5v-1v-445q0 -243 191 -243t191 243v445q0 23 9 43.5t24 36t35.5 24.5t43.5 9q24 0 44.5 -9t35.5 -24.5t24 -36t9 -43.5v-8v-443q0 -115 -29 -202q-28 -76 -97 -137 q-114 -99 -290 -99q-175 0 -289 99q-35 31 -60 65t-39 72q-28 68 -28 202zM242 1230q0 26 12 48.5t32 36.5l235 213q17 18 42.5 18t43.5 -18l-1 1l245 -221q17 -15 26 -35t9 -43q0 -21 -8 -39.5t-21.5 -32t-32 -21.5t-39.5 -8q-23 0 -42 9t-34 24l-105 99q-16 16 -37 17.5 t-38 -11.5l-114 -106q-30 -30 -72 -30q-21 0 -39.5 7.5t-32 21t-21.5 31.5t-8 39z" />
<glyph unicode="&#xfc;" horiz-adv-x="1116" d="M141 411v451v1q0 23 9 43.5t24 35.5t35.5 24t44.5 9q23 0 43.5 -9t35.5 -24t24 -35.5t9 -43.5v-1v-445q0 -243 191 -243t191 243v445q0 23 9 43.5t24 36t35.5 24.5t43.5 9q24 0 44.5 -9t35.5 -24.5t24 -36t9 -43.5v-8v-443q0 -115 -29 -202q-28 -76 -97 -137 q-114 -99 -290 -99q-175 0 -289 99q-35 31 -60 65t-39 72q-28 68 -28 202zM209 1284q0 58 42 99q42 42 101 42t101 -42q42 -41 42 -100q0 -60 -42 -102q-44 -41 -101 -41q-60 0 -102 42q-41 44 -41 102zM627 1284q0 58 42 99q43 42 101 42q60 0 101 -42q42 -41 42 -100 q0 -60 -42 -102q-44 -41 -101 -41q-59 0 -101 42t-42 102z" />
<glyph unicode="&#xfd;" horiz-adv-x="1113" d="M86 859q0 24 9 44.5t24.5 36t36 24.5t44.5 9q35 0 62.5 -19t41.5 -49v1l241 -453q3 -5 9 -12t13 -7q8 0 15 11q4 4 6 11l220 443q13 32 41 52.5t65 20.5q23 0 43.5 -9t36 -24.5t24.5 -36t9 -43.5q0 -18 -5.5 -34.5t-14.5 -30.5l-645 -1250q-12 -32 -40.5 -53.5 t-66.5 -21.5q-24 0 -44.5 9t-36 24.5t-24.5 36t-9 44.5q0 39 22 67l268 503q4 6 7 14t3 12q0 3 -2.5 9t-4.5 11q-4 6 -7 14l-320 580q-10 14 -15.5 30.5t-5.5 35.5zM467.5 1219q-1.5 17 4 33.5t18.5 31.5q4 5 5 7l174 225q2 2 2 3.5t2 3.5q11 13 29 22.5t39.5 12t44 -3.5 t42.5 -23q23 -19 34 -40.5t12.5 -42.5t-4.5 -40t-18 -33q-2 -1 -2 -1.5t-1 -1.5l-224 -203h-1q1 0 0 -1q-12 -15 -28 -22t-33 -8t-33.5 4.5t-31.5 16.5q-13 11 -21 27t-9.5 33z" />
<glyph unicode="&#xfe;" horiz-adv-x="1228" d="M142 -530v2219h225v-821q133 133 302 133q201 0 331 -148q132 -147 132 -371q0 -219 -131 -365q-130 -145 -328 -145q-171 0 -306 137v-639h-225zM354 486q0 -137 77 -226q76 -87 200 -87q117 0 193 88q78 88 78 220q0 140 -76 228q-77 89 -194 89q-124 0 -201 -86 t-77 -226z" />
<glyph unicode="&#xff;" horiz-adv-x="1113" d="M86 859q0 24 9 44.5t24.5 36t36 24.5t44.5 9q35 0 62.5 -19t41.5 -49v1l241 -453q3 -5 9 -12t13 -7q8 0 15 11q4 4 6 11l220 443q13 32 41 52.5t65 20.5q23 0 43.5 -9t36 -24.5t24.5 -36t9 -43.5q0 -18 -5.5 -34.5t-14.5 -30.5l-645 -1250q-12 -32 -40.5 -53.5 t-66.5 -21.5q-24 0 -44.5 9t-36 24.5t-24.5 36t-9 44.5q0 39 22 67l268 503q4 6 7 14t3 12q0 3 -2.5 9t-4.5 11q-4 6 -7 14l-320 580q-10 14 -15.5 30.5t-5.5 35.5zM207 1284q0 58 42 99q42 42 101 42t101 -42q42 -41 42 -100q0 -60 -42 -102q-44 -41 -101 -41 q-60 0 -102 42q-41 44 -41 102zM625 1284q0 58 42 99q43 42 101 42q60 0 101 -42q42 -41 42 -100q0 -60 -42 -102q-44 -41 -101 -41q-59 0 -101 42t-42 102z" />
<glyph unicode="&#x152;" horiz-adv-x="2424" d="M108 767q0 303 203 539q231 268 602 268q174 0 294 -58q130 -58 266 -193v221h831v-219h-598v-372h581v-220h-581v-514h598v-219h-831v213q-136 -132 -263 -187q-126 -54 -287 -54q-339 0 -577 232t-238 563zM343 782q0 -247 162 -419t395 -172q239 0 407 168 q168 169 168 408q0 240 -168 413q-167 173 -401 173q-230 0 -396 -169q-167 -170 -167 -402z" />
<glyph unicode="&#x153;" horiz-adv-x="1952" d="M96 483q0 219 152 368q151 150 374 150q246 0 390 -189q133 189 370 189q218 0 346 -137t128 -372l-2 -58h-711q8 -114 82 -188q73 -73 183 -73q159 0 258 192l192 -111q-171 -283 -466 -283q-104 0 -216 50q-103 51 -164 136q-158 -185 -402 -185q-212 0 -364 149 q-150 148 -150 362zM327 490q0 -147 75 -232q76 -85 206 -85q69 0 123 21.5t91.5 62t57 98.5t19.5 132q0 73 -19.5 131t-56.5 98t-90 61t-120 21q-131 0 -209 -84q-77 -83 -77 -224zM1161 618h457q-39 180 -227 180q-181 0 -230 -180z" />
<glyph unicode="&#x178;" horiz-adv-x="1229" d="M76 1432q0 24 9 45.5t25 37t37 25t45 9.5q35 0 63.5 -19t42.5 -49l1 1l303 -531l3.5 -3.5t5.5 -4t7 0t9 8.5l305 530q14 29 42 47.5t63 18.5q24 0 45 -9t37 -25t25 -37t9 -45q0 -31 -13 -54l-400 -693q-8 -14 -9 -24q-1 -6 -1 -11v-533q0 -24 -9.5 -45t-25.5 -37t-37 -25 t-45 -9t-45 9.5t-37 25t-25 36.5t-9 45v2v532q-1 3 -2.5 13.5t-7.5 21.5v1l-393 682q-18 27 -18 63zM251 1844q0 58 42 100t100 42q60 0 101 -42q42 -42 42 -102q0 -59 -42 -101q-41 -42 -100 -42q-60 0 -102 42q-41 44 -41 103zM700 1844q0 58 42 100t101 42t101 -42 t42 -102q0 -59 -42 -101t-101 -42q-60 0 -102 42q-41 44 -41 103z" />
<glyph unicode="&#x2c6;" horiz-adv-x="1158" d="M260 1230q0 26 12 48.5t32 36.5l235 213q17 18 42.5 18t43.5 -18l-1 1l245 -221q17 -15 26 -35t9 -43q0 -21 -8 -39.5t-21.5 -32t-32 -21.5t-39.5 -8q-23 0 -42 9t-34 24l-105 99q-16 16 -37 17.5t-38 -11.5l-114 -106q-30 -30 -72 -30q-21 0 -39.5 7.5t-32 21 t-21.5 31.5t-8 39z" />
<glyph unicode="&#x2dc;" horiz-adv-x="1158" d="M169 1251l29 41q28 40 54 67.5t53 45t56 25t63 7.5q78 0 181 -52q104 -53 134 -53q56 0 124 108l127 -106q-96 -192 -260 -192q-56 0 -183 56q-91 46 -136 46q-55 0 -111 -104z" />
<glyph unicode="&#x2000;" horiz-adv-x="1060" />
<glyph unicode="&#x2001;" horiz-adv-x="2121" />
<glyph unicode="&#x2002;" horiz-adv-x="1060" />
<glyph unicode="&#x2003;" horiz-adv-x="2121" />
<glyph unicode="&#x2004;" horiz-adv-x="707" />
<glyph unicode="&#x2005;" horiz-adv-x="530" />
<glyph unicode="&#x2006;" horiz-adv-x="353" />
<glyph unicode="&#x2007;" horiz-adv-x="353" />
<glyph unicode="&#x2008;" horiz-adv-x="265" />
<glyph unicode="&#x2009;" horiz-adv-x="424" />
<glyph unicode="&#x200a;" horiz-adv-x="117" />
<glyph unicode="&#x2010;" horiz-adv-x="445" d="M3 494q0 41 28 69t68 28h1v1h241q1 0 1.5 -0.5t2.5 -0.5q20 0 37.5 -7.5t31 -20.5t21 -30.5t7.5 -37.5t-7.5 -37.5t-20.5 -31t-31 -21t-38 -7.5q-2 0 -5 0.5t-5 0.5h-225q-3 0 -5.5 -0.5t-5.5 -0.5q-40 0 -68 28t-28 68z" />
<glyph unicode="&#x2011;" horiz-adv-x="445" d="M3 494q0 41 28 69t68 28h1v1h241q1 0 1.5 -0.5t2.5 -0.5q20 0 37.5 -7.5t31 -20.5t21 -30.5t7.5 -37.5t-7.5 -37.5t-20.5 -31t-31 -21t-38 -7.5q-2 0 -5 0.5t-5 0.5h-225q-3 0 -5.5 -0.5t-5.5 -0.5q-40 0 -68 28t-28 68z" />
<glyph unicode="&#x2012;" horiz-adv-x="445" d="M3 494q0 41 28 69t68 28h1v1h241q1 0 1.5 -0.5t2.5 -0.5q20 0 37.5 -7.5t31 -20.5t21 -30.5t7.5 -37.5t-7.5 -37.5t-20.5 -31t-31 -21t-38 -7.5q-2 0 -5 0.5t-5 0.5h-225q-3 0 -5.5 -0.5t-5.5 -0.5q-40 0 -68 28t-28 68z" />
<glyph unicode="&#x2013;" horiz-adv-x="1313" d="M237 397v196h838v-196h-838z" />
<glyph unicode="&#x2014;" horiz-adv-x="1336" d="M0 397v196h1336v-196h-1336z" />
<glyph unicode="&#x2018;" horiz-adv-x="669" d="M116 1039l285 572l152 -62l-236 -588z" />
<glyph unicode="&#x2019;" horiz-adv-x="669" d="M116 1024l237 587l200 -78l-285 -572z" />
<glyph unicode="&#x201a;" horiz-adv-x="669" d="M116 -297l237 586l200 -78l-285 -571z" />
<glyph unicode="&#x201c;" horiz-adv-x="1069" d="M116 1039l285 572l152 -62l-236 -588zM516 1039l285 572l152 -62l-236 -588z" />
<glyph unicode="&#x201d;" horiz-adv-x="1069" d="M116 1024l237 587l200 -78l-285 -572zM516 1024l237 587l200 -78l-285 -572z" />
<glyph unicode="&#x201e;" horiz-adv-x="1069" d="M116 -297l237 586l200 -78l-285 -571zM516 -297l237 586l200 -78l-285 -571z" />
<glyph unicode="&#x2022;" horiz-adv-x="1544" d="M454 787q0 136 94 230q95 95 229 95q128 0 220 -96q93 -95 93 -228q0 -136 -93 -230q-93 -95 -225 -95q-130 0 -225 95q-93 96 -93 229z" />
<glyph unicode="&#x2026;" horiz-adv-x="1934" d="M183 112q0 56 41 97t98 41t98 -41t41 -98q0 -58 -41 -99q-40 -40 -98 -40q-59 0 -99 40t-40 100zM827 112q0 56 41 97t98 41q58 0 99 -41t41 -98q0 -58 -41 -99q-40 -40 -98 -40q-59 0 -99 40q-41 41 -41 100zM1472 112q0 56 41 97t98 41t98 -41t41 -98q0 -58 -41 -99 q-40 -40 -97 -40q-59 0 -99 40q-41 41 -41 100z" />
<glyph unicode="&#x202f;" horiz-adv-x="424" />
<glyph unicode="&#x2039;" horiz-adv-x="751" d="M93 494l337 447q19 17 40 25q18 7 41.5 5.5t47.5 -21.5q23 -20 29 -41t4 -38q-3 -20 -13 -40l-251 -336l243 -312q11 -22 15 -43q3 -18 -3 -39.5t-29 -39.5q-27 -20 -51 -21.5t-42 6.5q-21 8 -40 26z" />
<glyph unicode="&#x203a;" horiz-adv-x="751" d="M159 871q-2 17 4 38t29 41q24 20 47 21.5t41 -5.5q21 -8 41 -25l337 -447l-328 -422q-19 -18 -40 -26q-18 -8 -42.5 -6.5t-50.5 21.5q-24 18 -29.5 39.5t-2.5 39.5q4 21 15 43l243 312l-251 336q-10 20 -13 40z" />
<glyph unicode="&#x205f;" horiz-adv-x="530" />
<glyph unicode="&#x20ac;" d="M241 607q-1 28 16 44t40 16h525q2 0 4 -0.5t4 -0.5q35 0 58.5 -23.5t23.5 -58.5t-23 -58.5t-58 -23.5q-1 0 -1 -0.5t-1 -0.5h-2h-266h-3q-12 0 -15.5 -6t-2 -15t6 -18l7.5 -15q31 -50 76 -92q130 -133 305 -160q42 -5 70 -36.5t28 -74.5q0 -23 -9 -43t-24 -35t-35 -24 t-43 -9q-13 0 -25 3q-249 39 -434 223q-175 174 -222 408zM241 920q39 200 182 371q198 233 476 276h1q4 2 8 2h14q23 0 43.5 -8.5t35.5 -23.5t23.5 -35.5t8.5 -43.5q0 -21 -7.5 -40t-20.5 -33.5t-30.5 -24t-38.5 -12.5q-176 -29 -306 -165q-22 -23 -40.5 -46t-34.5 -49 q-12 -22 -14.5 -35t0 -20t7.5 -9t8 -2h269q2 0 3 -0.5t2 -0.5q35 0 58.5 -24t23.5 -59q0 -34 -22.5 -58t-56.5 -25h-4h-536q-23 2 -39 19t-13 46z" />
<glyph unicode="&#xe000;" horiz-adv-x="975" d="M0 0v975h975v-975h-975z" />
</font>
</defs>
</svg>
